<svg width="1651" height="501" viewBox="0 0 1651 501" fill="none" xmlns="http://www.w3.org/2000/svg">
<rect width="501" height="501" rx="20" fill="#00A3FF"/>
<rect x="18" y="18" width="466" height="466" rx="20" fill="#1A4157"/>
<path d="M266.167 296.946L239.386 351.454C237.402 355.602 233.976 357.451 229.106 357L222.749 356.459C219.503 356.369 217.384 355.151 216.392 352.807C215.4 350.463 215.581 348.163 216.933 345.909L309.179 168.046C313.056 160.652 318.151 156.955 324.463 156.955L335.554 156.684C338.89 156.684 341.505 157.812 343.399 160.066C345.292 162.32 346.104 165.656 345.833 170.075L336.095 350.913C335.914 354.971 333.164 357 327.844 357L318.376 356.729C313.867 356.729 311.748 354.25 312.019 349.29L315.536 296.946H266.167ZM276.041 276.928H316.888L323.245 180.625L276.041 276.928Z" fill="#00D1FF"/>
<path d="M234.833 204.054L261.614 149.546C263.598 145.398 267.024 143.549 271.894 144L278.251 144.541C281.497 144.631 283.616 145.849 284.608 148.193C285.6 150.537 285.419 152.837 284.067 155.091L191.821 332.954C187.944 340.348 182.849 344.045 176.537 344.045L165.446 344.316C162.11 344.316 159.495 343.188 157.601 340.934C155.708 338.68 154.896 335.344 155.167 330.925L164.905 150.087C165.086 146.029 167.836 144 173.156 144L182.624 144.271C187.133 144.271 189.252 146.75 188.981 151.71L185.464 204.054H234.833ZM224.959 224.072H184.112L177.755 320.375L224.959 224.072Z" fill="#00D1FF"/>
<path d="M687.688 327.056C688.264 329.36 688.552 331.184 688.552 332.528C688.552 334.256 688.168 335.6 687.4 336.56C686.632 337.328 685.288 338.096 683.368 338.864C679.912 340.208 677.416 340.88 675.88 340.88C673.768 340.88 672.424 339.536 671.848 336.848L659.464 263.408L605.896 268.88L578.536 331.664C577.192 334.544 575.848 336.56 574.504 337.712C573.16 338.672 571.528 339.152 569.608 339.152C565.96 339.152 563.368 338.864 561.832 338.288C560.104 337.712 559.24 336.656 559.24 335.12C559.24 333.968 559.528 332.72 560.104 331.376L637.576 155.12C638.92 152.048 639.976 150.032 640.744 149.072C641.704 147.92 643.144 146.96 645.064 146.192C649.096 144.848 651.688 144.176 652.84 144.176C654.76 144.176 655.816 145.328 656.008 147.632L673.288 245.84L674.728 245.552C676.264 245.36 678.184 245.264 680.488 245.264C682.6 245.264 684.136 245.744 685.096 246.704C686.056 247.472 686.824 249.296 687.4 252.176C687.784 254.48 687.976 255.92 687.976 256.496C687.976 258.032 687.112 259.184 685.384 259.952C683.848 260.72 680.776 261.392 676.168 261.968L687.688 327.056ZM648.808 200.624L646.216 176.432L613.384 251.6L656.584 247.28L648.808 200.624ZM735.343 144.176C730.543 179.12 725.839 217.424 721.231 259.088C716.623 300.56 714.319 324.848 714.319 331.952C714.319 335.024 714.607 337.136 715.183 338.288C715.951 339.44 717.391 340.016 719.503 340.016C720.079 340.016 721.711 339.824 724.399 339.44C727.279 338.672 729.103 338 729.871 337.424C730.831 336.848 731.407 335.216 731.599 332.528C732.367 316.592 733.231 303.344 734.191 292.784C735.919 274.352 737.935 254.672 740.239 233.744C742.735 212.624 746.863 181.136 752.623 139.28C753.007 137.168 752.911 135.632 752.335 134.672C751.759 133.712 750.703 133.232 749.167 133.232C747.247 133.232 744.847 133.616 741.967 134.384C739.663 134.96 738.031 135.824 737.071 136.976C736.303 138.128 735.727 140.528 735.343 144.176ZM852.798 134.384C855.87 133.616 858.462 133.232 860.574 133.232C862.302 133.232 863.454 133.712 864.03 134.672C864.606 135.44 864.798 136.976 864.606 139.28C858.078 184.592 853.374 218.096 850.494 239.792C847.614 261.296 845.598 278.96 844.446 292.784C842.91 310.256 842.142 323.504 842.142 332.528C842.142 335.216 841.662 336.848 840.702 337.424C839.934 338 838.11 338.672 835.23 339.44C832.926 339.824 831.486 340.016 830.91 340.016C828.606 340.016 827.07 339.248 826.302 337.712C825.534 336.176 825.246 333.392 825.438 329.36C825.438 325.904 825.726 321.488 826.302 316.112C822.654 323.792 817.854 329.84 811.902 334.256C806.142 338.672 799.518 340.88 792.03 340.88C782.814 340.688 775.422 336.176 769.854 327.344C764.478 318.512 761.79 306.32 761.79 290.768C761.982 276.368 764.094 262.928 768.126 250.448C772.158 237.776 778.014 227.696 785.694 220.208C793.566 212.528 802.974 208.688 813.918 208.688C821.79 208.688 829.566 211.088 837.246 215.888C840.702 189.392 843.678 165.488 846.174 144.176C846.558 140.528 847.134 138.128 847.902 136.976C848.862 135.824 850.494 134.96 852.798 134.384ZM835.23 231.728C831.582 229.424 828.222 227.792 825.15 226.832C822.27 225.68 819.006 225.104 815.358 225.104C806.526 225.104 799.422 228.848 794.046 236.336C788.67 243.824 784.83 252.56 782.526 262.544C780.414 272.528 779.262 281.744 779.07 290.192C779.07 312.656 785.118 323.888 797.214 323.888C805.086 323.888 812.19 318.416 818.526 307.472C824.862 296.528 828.894 283.472 830.622 268.304L835.23 231.728ZM923.927 208.112C933.911 208.304 941.783 212.72 947.543 221.36C953.495 229.808 956.567 240.176 956.759 252.464C956.759 268.784 954.743 283.664 950.711 297.104C946.679 310.352 940.631 321.008 932.567 329.072C924.503 336.944 914.615 340.88 902.903 340.88C892.919 340.688 884.951 336.368 878.999 327.92C873.239 319.28 870.263 308.816 870.071 296.528C870.071 280.208 872.087 265.424 876.119 252.176C880.151 238.736 886.199 228.08 894.263 220.208C902.327 212.144 912.215 208.112 923.927 208.112ZM904.343 324.464C912.983 324.464 919.895 320.528 925.079 312.656C930.455 304.784 934.199 295.664 936.311 285.296C938.615 274.736 939.767 265.136 939.767 256.496C939.767 246.896 938.327 239.312 935.447 233.744C932.567 227.984 928.247 225.104 922.487 225.104C913.847 225.104 906.839 229.04 901.463 236.912C896.279 244.592 892.535 253.616 890.231 263.984C888.119 274.352 887.063 283.856 887.063 292.496C887.063 302.096 888.503 309.872 891.383 315.824C894.263 321.584 898.583 324.464 904.343 324.464ZM1145.56 327.056C1146.14 329.36 1146.43 331.184 1146.43 332.528C1146.43 334.256 1146.04 335.6 1145.28 336.56C1144.51 337.328 1143.16 338.096 1141.24 338.864C1137.79 340.208 1135.29 340.88 1133.76 340.88C1131.64 340.88 1130.3 339.536 1129.72 336.848L1117.34 263.408L1063.77 268.88L1036.41 331.664C1035.07 334.544 1033.72 336.56 1032.38 337.712C1031.04 338.672 1029.4 339.152 1027.48 339.152C1023.84 339.152 1021.24 338.864 1019.71 338.288C1017.98 337.712 1017.11 336.656 1017.11 335.12C1017.11 333.968 1017.4 332.72 1017.98 331.376L1095.45 155.12C1096.8 152.048 1097.85 150.032 1098.62 149.072C1099.58 147.92 1101.02 146.96 1102.94 146.192C1106.97 144.848 1109.56 144.176 1110.72 144.176C1112.64 144.176 1113.69 145.328 1113.88 147.632L1131.16 245.84L1132.6 245.552C1134.14 245.36 1136.06 245.264 1138.36 245.264C1140.48 245.264 1142.01 245.744 1142.97 246.704C1143.93 247.472 1144.7 249.296 1145.28 252.176C1145.66 254.48 1145.85 255.92 1145.85 256.496C1145.85 258.032 1144.99 259.184 1143.26 259.952C1141.72 260.72 1138.65 261.392 1134.04 261.968L1145.56 327.056ZM1106.68 200.624L1104.09 176.432L1071.26 251.6L1114.46 247.28L1106.68 200.624ZM1232.39 208.112C1241.79 208.112 1249.19 212.048 1254.56 219.92C1259.94 227.6 1262.63 238.256 1262.63 251.888C1262.63 267.632 1260.61 282.32 1256.58 295.952C1252.55 309.392 1246.5 320.144 1238.43 328.208C1230.56 336.272 1221.15 340.304 1210.21 340.304C1202.15 340.304 1194.47 337.904 1187.17 333.104L1184.58 353.264C1182.66 367.088 1181.31 377.552 1180.55 384.656C1180.16 388.304 1179.49 390.704 1178.53 391.856C1177.76 393.008 1176.23 393.872 1173.92 394.448C1170.85 395.216 1168.26 395.6 1166.15 395.6C1164.42 395.6 1163.27 395.12 1162.69 394.16C1162.11 393.392 1161.92 391.856 1162.11 389.552C1162.11 389.168 1163.84 376.784 1167.3 352.4C1171.71 323.216 1175.27 297.296 1177.95 274.64C1180.83 251.792 1182.27 232.976 1182.27 218.192C1182.27 214.352 1182.66 211.952 1183.43 210.992C1184.39 209.84 1186.31 208.976 1189.19 208.4C1193.79 207.632 1196.29 207.248 1196.67 207.248C1198.4 207.248 1199.55 207.728 1200.13 208.688C1200.71 209.456 1200.9 211.088 1200.71 213.584L1199.55 229.712C1204.35 222.416 1209.25 217.04 1214.24 213.584C1219.23 209.936 1225.28 208.112 1232.39 208.112ZM1208.77 323.888C1217.79 323.888 1224.99 319.856 1230.37 311.792C1235.94 303.728 1239.87 294.224 1242.18 283.28C1244.48 272.336 1245.63 262.256 1245.63 253.04C1245.63 244.784 1244.29 238.064 1241.6 232.88C1238.91 227.696 1234.98 225.104 1229.79 225.104C1224.61 225.104 1219.43 228.08 1214.24 234.032C1209.06 239.792 1204.55 246.992 1200.71 255.632C1197.06 264.272 1194.75 272.624 1193.79 280.688L1189.19 317.264C1192.83 319.568 1196.1 321.296 1198.98 322.448C1202.05 323.408 1205.31 323.888 1208.77 323.888ZM1341.51 208.112C1350.92 208.112 1358.31 212.048 1363.69 219.92C1369.06 227.6 1371.75 238.256 1371.75 251.888C1371.75 267.632 1369.74 282.32 1365.7 295.952C1361.67 309.392 1355.62 320.144 1347.56 328.208C1339.69 336.272 1330.28 340.304 1319.34 340.304C1311.27 340.304 1303.59 337.904 1296.3 333.104L1293.7 353.264C1291.78 367.088 1290.44 377.552 1289.67 384.656C1289.29 388.304 1288.62 390.704 1287.66 391.856C1286.89 393.008 1285.35 393.872 1283.05 394.448C1279.98 395.216 1277.38 395.6 1275.27 395.6C1273.54 395.6 1272.39 395.12 1271.82 394.16C1271.24 393.392 1271.05 391.856 1271.24 389.552C1271.24 389.168 1272.97 376.784 1276.42 352.4C1280.84 323.216 1284.39 297.296 1287.08 274.64C1289.96 251.792 1291.4 232.976 1291.4 218.192C1291.4 214.352 1291.78 211.952 1292.55 210.992C1293.51 209.84 1295.43 208.976 1298.31 208.4C1302.92 207.632 1305.42 207.248 1305.8 207.248C1307.53 207.248 1308.68 207.728 1309.26 208.688C1309.83 209.456 1310.02 211.088 1309.83 213.584L1308.68 229.712C1313.48 222.416 1318.38 217.04 1323.37 213.584C1328.36 209.936 1334.41 208.112 1341.51 208.112ZM1317.9 323.888C1326.92 323.888 1334.12 319.856 1339.5 311.792C1345.06 303.728 1349 294.224 1351.3 283.28C1353.61 272.336 1354.76 262.256 1354.76 253.04C1354.76 244.784 1353.42 238.064 1350.73 232.88C1348.04 227.696 1344.1 225.104 1338.92 225.104C1333.74 225.104 1328.55 228.08 1323.37 234.032C1318.18 239.792 1313.67 246.992 1309.83 255.632C1306.18 264.272 1303.88 272.624 1302.92 280.688L1298.31 317.264C1301.96 319.568 1305.22 321.296 1308.1 322.448C1311.18 323.408 1314.44 323.888 1317.9 323.888ZM1446.6 232.304C1442.19 226.352 1436.33 223.376 1429.04 223.376C1424.24 223.376 1420.2 224.624 1416.94 227.12C1413.87 229.424 1412.33 233.168 1412.33 238.352C1412.33 242.96 1413.77 247.184 1416.65 251.024C1419.72 254.672 1424.91 259.184 1432.2 264.56C1441.8 271.856 1448.81 278.288 1453.23 283.856C1457.64 289.424 1459.85 296.24 1459.85 304.304C1459.85 315.248 1456.11 323.984 1448.62 330.512C1441.13 337.04 1431.92 340.304 1420.97 340.304C1413.1 340.304 1405.8 338.192 1399.08 333.968C1392.36 329.744 1386.8 324.176 1382.38 317.264C1381.8 316.112 1381.52 315.056 1381.52 314.096C1381.52 311.984 1383.34 309.776 1386.99 307.472C1389.29 305.744 1391.12 304.88 1392.46 304.88C1393.8 304.88 1395.15 305.936 1396.49 308.048C1399.56 312.656 1403.21 316.4 1407.44 319.28C1411.85 322.16 1416.56 323.6 1421.55 323.6C1427.88 323.6 1432.97 321.776 1436.81 318.128C1440.84 314.48 1442.86 310.064 1442.86 304.88C1442.86 299.888 1441.13 295.568 1437.68 291.92C1434.41 288.08 1429.52 283.664 1422.99 278.672L1417.23 274.064C1409.93 268.304 1404.46 262.832 1400.81 257.648C1397.16 252.272 1395.34 245.744 1395.34 238.064C1395.34 228.656 1398.6 221.168 1405.13 215.6C1411.66 210.032 1419.82 207.248 1429.61 207.248C1444.78 207.248 1455.63 213.296 1462.16 225.392C1462.73 226.544 1463.02 227.504 1463.02 228.272C1463.02 229.424 1462.54 230.384 1461.58 231.152C1460.62 231.92 1458.89 232.976 1456.4 234.32C1454.09 235.28 1452.46 235.76 1451.5 235.76C1449.77 235.76 1448.14 234.608 1446.6 232.304Z" fill="white"/>
<path d="M687.688 327.056L686.703 327.23L686.709 327.265L686.718 327.299L687.688 327.056ZM687.4 336.56L688.107 337.267L688.146 337.228L688.181 337.185L687.4 336.56ZM683.368 338.864L683.73 339.796L683.739 339.792L683.368 338.864ZM671.848 336.848L670.862 337.014L670.866 337.036L670.87 337.058L671.848 336.848ZM659.464 263.408L660.45 263.242L660.294 262.318L659.362 262.413L659.464 263.408ZM605.896 268.88L605.794 267.885L605.213 267.945L604.979 268.481L605.896 268.88ZM578.536 331.664L579.442 332.087L579.448 332.075L579.453 332.063L578.536 331.664ZM574.504 337.712L575.085 338.526L575.121 338.5L575.155 338.471L574.504 337.712ZM561.832 338.288L562.183 337.352L562.166 337.345L562.148 337.339L561.832 338.288ZM560.104 331.376L559.188 330.974L559.185 330.982L560.104 331.376ZM637.576 155.12L638.491 155.522L638.492 155.521L637.576 155.12ZM640.744 149.072L639.976 148.432L639.969 148.439L639.963 148.447L640.744 149.072ZM645.064 146.192L644.748 145.243L644.72 145.253L644.693 145.264L645.064 146.192ZM656.008 147.632L655.011 147.715L655.015 147.76L655.023 147.805L656.008 147.632ZM673.288 245.84L672.303 246.013L672.48 247.021L673.484 246.821L673.288 245.84ZM674.728 245.552L674.604 244.56L674.568 244.564L674.532 244.571L674.728 245.552ZM685.096 246.704L684.389 247.411L684.428 247.45L684.471 247.485L685.096 246.704ZM687.4 252.176L688.386 252.012L688.384 251.996L688.381 251.98L687.4 252.176ZM685.384 259.952L684.978 259.038L684.957 259.047L684.937 259.058L685.384 259.952ZM676.168 261.968L676.044 260.976L675 261.106L675.183 262.142L676.168 261.968ZM648.808 200.624L647.814 200.731L647.817 200.76L647.822 200.788L648.808 200.624ZM646.216 176.432L647.21 176.325L646.809 172.577L645.3 176.032L646.216 176.432ZM613.384 251.6L612.468 251.2L611.784 252.765L613.484 252.595L613.384 251.6ZM656.584 247.28L656.684 248.275L657.746 248.169L657.57 247.116L656.584 247.28ZM686.718 327.299C687.287 329.574 687.552 331.305 687.552 332.528H689.552C689.552 331.063 689.241 329.146 688.658 326.813L686.718 327.299ZM687.552 332.528C687.552 334.119 687.198 335.212 686.619 335.935L688.181 337.185C689.138 335.988 689.552 334.393 689.552 332.528H687.552ZM686.693 335.853C686.072 336.473 684.884 337.181 682.997 337.936L683.739 339.792C685.692 339.011 687.192 338.183 688.107 337.267L686.693 335.853ZM683.006 337.932C679.547 339.277 677.209 339.88 675.88 339.88V341.88C677.623 341.88 680.277 341.139 683.73 339.796L683.006 337.932ZM675.88 339.88C675.057 339.88 674.458 339.628 673.995 339.165C673.507 338.677 673.091 337.874 672.826 336.638L670.87 337.058C671.181 338.51 671.725 339.723 672.581 340.579C673.462 341.46 674.591 341.88 675.88 341.88V339.88ZM672.834 336.682L660.45 263.242L658.478 263.574L670.862 337.014L672.834 336.682ZM659.362 262.413L605.794 267.885L605.998 269.875L659.566 264.403L659.362 262.413ZM604.979 268.481L577.619 331.265L579.453 332.063L606.813 269.279L604.979 268.481ZM577.63 331.241C576.306 334.079 575.035 335.94 573.853 336.953L575.155 338.471C576.661 337.18 578.078 335.009 579.442 332.087L577.63 331.241ZM573.923 336.898C572.775 337.718 571.355 338.152 569.608 338.152V340.152C571.701 340.152 573.545 339.626 575.085 338.526L573.923 336.898ZM569.608 338.152C565.969 338.152 563.536 337.859 562.183 337.352L561.481 339.224C563.2 339.869 565.951 340.152 569.608 340.152V338.152ZM562.148 337.339C561.405 337.092 560.94 336.771 560.662 336.431C560.395 336.104 560.24 335.688 560.24 335.12H558.24C558.24 336.088 558.517 336.968 559.114 337.697C559.7 338.413 560.531 338.908 561.516 339.237L562.148 337.339ZM560.24 335.12C560.24 334.135 560.487 333.022 561.023 331.77L559.185 330.982C558.569 332.418 558.24 333.801 558.24 335.12H560.24ZM561.019 331.778L638.491 155.522L636.661 154.718L559.189 330.974L561.019 331.778ZM638.492 155.521C639.842 152.436 640.851 150.539 641.525 149.697L639.963 148.447C639.101 149.525 637.998 151.66 636.66 154.719L638.492 155.521ZM641.512 149.712C642.333 148.727 643.614 147.849 645.435 147.12L644.693 145.264C642.674 146.071 641.075 147.113 639.976 148.432L641.512 149.712ZM645.38 147.141C647.386 146.472 649.018 145.976 650.283 145.648C651.576 145.313 652.403 145.176 652.84 145.176V143.176C652.125 143.176 651.08 143.375 649.781 143.712C648.454 144.056 646.774 144.568 644.748 145.243L645.38 147.141ZM652.84 145.176C653.589 145.176 654.038 145.392 654.335 145.716C654.656 146.066 654.925 146.682 655.011 147.715L657.005 147.549C656.899 146.278 656.544 145.166 655.809 144.364C655.05 143.536 654.011 143.176 652.84 143.176V145.176ZM655.023 147.805L672.303 246.013L674.273 245.667L656.993 147.459L655.023 147.805ZM673.484 246.821L674.924 246.533L674.532 244.571L673.092 244.859L673.484 246.821ZM674.852 246.544C676.332 246.359 678.208 246.264 680.488 246.264V244.264C678.16 244.264 676.196 244.361 674.604 244.56L674.852 246.544ZM680.488 246.264C682.478 246.264 683.698 246.72 684.389 247.411L685.803 245.997C684.574 244.768 682.722 244.264 680.488 244.264V246.264ZM684.471 247.485C684.765 247.72 685.116 248.194 685.47 249.036C685.819 249.864 686.139 250.97 686.419 252.372L688.381 251.98C688.085 250.502 687.733 249.256 687.314 248.26C686.9 247.278 686.387 246.456 685.721 245.923L684.471 247.485ZM686.414 252.34C686.803 254.676 686.976 256.022 686.976 256.496H688.976C688.976 255.818 688.765 254.284 688.386 252.012L686.414 252.34ZM686.976 256.496C686.976 257.063 686.821 257.521 686.528 257.912C686.226 258.315 685.733 258.702 684.978 259.038L685.79 260.866C686.763 260.434 687.567 259.861 688.128 259.112C688.699 258.351 688.976 257.465 688.976 256.496H686.976ZM684.937 259.058C683.575 259.738 680.669 260.398 676.044 260.976L676.292 262.96C680.883 262.386 684.121 261.702 685.831 260.846L684.937 259.058ZM675.183 262.142L686.703 327.23L688.673 326.882L677.153 261.794L675.183 262.142ZM649.802 200.517L647.21 176.325L645.222 176.539L647.814 200.731L649.802 200.517ZM645.3 176.032L612.468 251.2L614.3 252L647.132 176.832L645.3 176.032ZM613.484 252.595L656.684 248.275L656.485 246.285L613.284 250.605L613.484 252.595ZM657.57 247.116L649.794 200.46L647.822 200.788L655.598 247.444L657.57 247.116ZM735.343 144.176L736.334 144.312L736.336 144.296L736.338 144.281L735.343 144.176ZM721.231 259.088L722.225 259.198L722.225 259.198L721.231 259.088ZM715.183 338.288L714.289 338.735L714.316 338.791L714.351 338.843L715.183 338.288ZM724.399 339.44L724.54 340.43L724.599 340.422L724.657 340.406L724.399 339.44ZM729.871 337.424L729.357 336.567L729.312 336.593L729.271 336.624L729.871 337.424ZM731.599 332.528L732.596 332.599L732.597 332.588L732.598 332.576L731.599 332.528ZM734.191 292.784L733.195 292.691L733.195 292.693L734.191 292.784ZM740.239 233.744L739.246 233.627L739.245 233.635L740.239 233.744ZM752.623 139.28L751.639 139.101L751.635 139.122L751.632 139.144L752.623 139.28ZM752.335 134.672L751.478 135.186L751.478 135.186L752.335 134.672ZM741.967 134.384L742.21 135.354L742.217 135.352L742.225 135.35L741.967 134.384ZM737.071 136.976L736.303 136.336L736.269 136.377L736.239 136.421L737.071 136.976ZM734.352 144.04C729.551 178.994 724.846 217.307 720.237 258.978L722.225 259.198C726.832 217.541 731.535 179.246 736.334 144.312L734.352 144.04ZM720.237 258.978C715.633 300.416 713.319 324.777 713.319 331.952H715.319C715.319 324.919 717.613 300.704 722.225 259.198L720.237 258.978ZM713.319 331.952C713.319 335.021 713.596 337.351 714.289 338.735L716.077 337.841C715.618 336.921 715.319 335.027 715.319 331.952H713.319ZM714.351 338.843C715.388 340.398 717.241 341.016 719.503 341.016V339.016C717.541 339.016 716.514 338.482 716.015 337.733L714.351 338.843ZM719.503 341.016C720.168 341.016 721.886 340.809 724.54 340.43L724.258 338.45C721.536 338.839 719.99 339.016 719.503 339.016V341.016ZM724.657 340.406C726.113 340.018 727.321 339.649 728.273 339.298C729.203 338.956 729.965 338.603 730.471 338.224L729.271 336.624C729.009 336.821 728.475 337.092 727.581 337.422C726.709 337.743 725.565 338.094 724.141 338.474L724.657 340.406ZM730.385 338.281C731.149 337.824 731.641 337.022 731.966 336.101C732.295 335.167 732.497 333.989 732.596 332.599L730.602 332.457C730.509 333.755 730.327 334.737 730.08 335.435C729.829 336.146 729.553 336.448 729.357 336.567L730.385 338.281ZM732.598 332.576C733.365 316.648 734.229 303.415 735.187 292.875L733.195 292.693C732.233 303.273 731.369 316.536 730.6 332.48L732.598 332.576ZM735.187 292.877C736.914 274.451 738.93 254.777 741.233 233.853L739.245 233.635C736.94 254.567 734.924 274.253 733.195 292.691L735.187 292.877ZM741.232 233.861C743.727 212.751 747.854 181.271 753.614 139.416L751.632 139.144C745.872 181.001 741.743 212.497 739.246 233.627L741.232 233.861ZM753.607 139.459C754 137.299 753.966 135.447 753.192 134.157L751.478 135.186C751.856 135.817 752.014 137.037 751.639 139.101L753.607 139.459ZM753.192 134.157C752.372 132.789 750.908 132.232 749.167 132.232V134.232C750.498 134.232 751.146 134.635 751.478 135.186L753.192 134.157ZM749.167 132.232C747.126 132.232 744.633 132.638 741.709 133.418L742.225 135.35C745.061 134.594 747.368 134.232 749.167 134.232V132.232ZM741.724 133.414C739.326 134.013 737.457 134.951 736.303 136.336L737.839 137.616C738.605 136.697 740 135.907 742.21 135.354L741.724 133.414ZM736.239 136.421C735.757 137.144 735.388 138.167 735.091 139.407C734.789 140.664 734.543 142.223 734.348 144.071L736.338 144.281C736.527 142.481 736.761 141.016 737.035 139.873C737.314 138.713 737.617 137.96 737.903 137.531L736.239 136.421ZM852.798 134.384L853.04 135.354L853.04 135.354L852.798 134.384ZM864.03 134.672L863.172 135.186L863.199 135.231L863.23 135.272L864.03 134.672ZM864.606 139.28L865.595 139.423L865.6 139.393L865.602 139.363L864.606 139.28ZM850.494 239.792L851.485 239.925L851.485 239.924L850.494 239.792ZM844.446 292.784L845.442 292.872L845.442 292.867L844.446 292.784ZM840.702 337.424L840.187 336.567L840.143 336.593L840.101 336.624L840.702 337.424ZM835.23 339.44L835.394 340.426L835.441 340.419L835.487 340.406L835.23 339.44ZM826.302 337.712L827.196 337.265L827.196 337.265L826.302 337.712ZM825.438 329.36L826.436 329.408L826.438 329.384V329.36H825.438ZM826.302 316.112L827.296 316.219L825.398 315.683L826.302 316.112ZM811.902 334.256L811.306 333.453L811.299 333.458L811.293 333.462L811.902 334.256ZM792.03 340.88L792.009 341.88L792.019 341.88H792.03V340.88ZM769.854 327.344L768.999 327.864L769.003 327.871L769.008 327.877L769.854 327.344ZM761.79 290.768L760.79 290.755V290.768H761.79ZM768.126 250.448L769.077 250.755L769.078 250.751L768.126 250.448ZM785.694 220.208L786.392 220.924L786.392 220.924L785.694 220.208ZM837.246 215.888L836.716 216.736L838.036 217.561L838.237 216.017L837.246 215.888ZM846.174 144.176L847.167 144.292L847.168 144.281L846.174 144.176ZM847.902 136.976L847.133 136.336L847.099 136.377L847.069 136.421L847.902 136.976ZM835.23 231.728L836.222 231.853L836.301 231.222L835.763 230.883L835.23 231.728ZM825.15 226.832L824.778 227.76L824.814 227.775L824.851 227.786L825.15 226.832ZM794.046 236.336L793.233 235.753L793.233 235.753L794.046 236.336ZM782.526 262.544L781.551 262.319L781.549 262.328L781.547 262.337L782.526 262.544ZM779.07 290.192L778.07 290.169L778.07 290.181V290.192H779.07ZM818.526 307.472L819.391 307.973L819.391 307.973L818.526 307.472ZM830.622 268.304L829.629 268.179L829.628 268.191L830.622 268.304ZM853.04 135.354C856.068 134.597 858.573 134.232 860.574 134.232V132.232C858.35 132.232 855.671 132.635 852.555 133.414L853.04 135.354ZM860.574 134.232C862.154 134.232 862.861 134.669 863.172 135.186L864.887 134.157C864.046 132.755 862.449 132.232 860.574 132.232V134.232ZM863.23 135.272C863.368 135.456 863.527 135.834 863.613 136.524C863.698 137.199 863.702 138.084 863.609 139.197L865.602 139.363C865.701 138.172 865.705 137.137 865.598 136.276C865.492 135.43 865.267 134.656 864.829 134.072L863.23 135.272ZM863.616 139.137C857.088 184.45 852.383 217.959 849.502 239.66L851.485 239.924C854.364 218.233 859.067 184.734 865.595 139.423L863.616 139.137ZM849.502 239.659C846.621 261.172 844.603 278.854 843.449 292.701L845.442 292.867C846.592 279.066 848.606 261.42 851.485 239.925L849.502 239.659ZM843.449 292.696C841.913 310.176 841.142 323.459 841.142 332.528H843.142C843.142 323.549 843.906 310.336 845.442 292.872L843.449 292.696ZM841.142 332.528C841.142 333.825 841.024 334.799 840.822 335.486C840.617 336.183 840.363 336.461 840.187 336.567L841.216 338.281C842 337.811 842.466 336.985 842.741 336.05C843.019 335.105 843.142 333.919 843.142 332.528H841.142ZM840.101 336.624C839.839 336.821 839.306 337.092 838.412 337.422C837.54 337.743 836.396 338.094 834.972 338.474L835.487 340.406C836.943 340.018 838.151 339.649 839.103 339.298C840.033 338.956 840.796 338.603 841.302 338.224L840.101 336.624ZM835.065 338.454C832.73 338.843 831.384 339.016 830.91 339.016V341.016C831.587 341.016 833.121 340.805 835.394 340.426L835.065 338.454ZM830.91 339.016C828.833 339.016 827.736 338.345 827.196 337.265L825.407 338.159C826.403 340.151 828.378 341.016 830.91 341.016V339.016ZM827.196 337.265C826.889 336.651 826.643 335.707 826.504 334.369C826.367 333.044 826.342 331.393 826.436 329.408L824.439 329.312C824.341 331.359 824.364 333.116 824.515 334.575C824.664 336.021 824.946 337.237 825.407 338.159L827.196 337.265ZM826.438 329.36C826.438 325.954 826.722 321.576 827.296 316.219L825.307 316.005C824.729 321.4 824.438 325.854 824.438 329.36H826.438ZM825.398 315.683C821.81 323.237 817.108 329.148 811.306 333.453L812.497 335.059C818.599 330.532 823.497 324.347 827.205 316.541L825.398 315.683ZM811.293 333.462C805.714 337.74 799.305 339.88 792.03 339.88V341.88C799.73 341.88 806.569 339.604 812.51 335.05L811.293 333.462ZM792.05 339.88C783.219 339.696 776.116 335.403 770.699 326.811L769.008 327.877C774.727 336.949 782.408 341.68 792.009 341.88L792.05 339.88ZM770.708 326.824C765.464 318.209 762.79 306.222 762.79 290.768H760.79C760.79 306.418 763.491 318.815 768.999 327.864L770.708 326.824ZM762.789 290.781C762.98 276.472 765.079 263.132 769.077 250.755L767.174 250.141C763.108 262.724 760.983 276.264 760.79 290.755L762.789 290.781ZM769.078 250.751C773.072 238.199 778.854 228.273 786.392 220.924L784.995 219.492C777.173 227.119 771.243 237.353 767.173 250.145L769.078 250.751ZM786.392 220.924C794.078 213.425 803.236 209.688 813.918 209.688V207.688C802.711 207.688 793.053 211.631 784.995 219.492L786.392 220.924ZM813.918 209.688C821.575 209.688 829.17 212.02 836.716 216.736L837.776 215.04C829.961 210.156 822.004 207.688 813.918 207.688V209.688ZM838.237 216.017C841.694 189.518 844.67 165.61 847.167 144.292L845.18 144.06C842.685 165.366 839.709 189.266 836.254 215.759L838.237 216.017ZM847.168 144.281C847.357 142.481 847.592 141.016 847.866 139.873C848.144 138.713 848.447 137.96 848.734 137.531L847.069 136.421C846.588 137.144 846.219 138.167 845.921 139.407C845.619 140.664 845.374 142.223 845.179 144.071L847.168 144.281ZM848.67 137.616C849.435 136.697 850.83 135.907 853.04 135.354L852.555 133.414C850.157 134.013 848.288 134.951 847.133 136.336L848.67 137.616ZM835.763 230.883C832.065 228.547 828.625 226.871 825.448 225.878L824.851 227.786C827.818 228.713 831.098 230.301 834.696 232.573L835.763 230.883ZM825.521 225.904C822.504 224.697 819.111 224.104 815.358 224.104V226.104C818.9 226.104 822.035 226.663 824.778 227.76L825.521 225.904ZM815.358 224.104C806.187 224.104 798.787 228.017 793.233 235.753L794.858 236.919C800.056 229.679 806.864 226.104 815.358 226.104V224.104ZM793.233 235.753C787.772 243.36 783.882 252.221 781.551 262.319L783.5 262.769C785.777 252.899 789.567 244.288 794.858 236.919L793.233 235.753ZM781.547 262.337C779.425 272.37 778.263 281.648 778.07 290.169L780.069 290.215C780.26 281.84 781.402 272.686 783.504 262.751L781.547 262.337ZM778.07 290.192C778.07 301.481 779.584 310.104 782.725 315.938C784.304 318.87 786.305 321.12 788.749 322.632C791.196 324.147 794.029 324.888 797.214 324.888V322.888C794.35 322.888 791.891 322.225 789.802 320.932C787.71 319.636 785.931 317.674 784.486 314.99C781.579 309.592 780.07 301.367 780.07 290.192H778.07ZM797.214 324.888C805.623 324.888 812.991 319.028 819.391 307.973L817.66 306.971C811.388 317.804 804.548 322.888 797.214 322.888V324.888ZM819.391 307.973C825.809 296.888 829.875 283.694 831.615 268.417L829.628 268.191C827.912 283.25 823.914 296.168 817.66 306.971L819.391 307.973ZM831.614 268.429L836.222 231.853L834.237 231.603L829.629 268.179L831.614 268.429ZM923.927 208.112L923.946 207.112L923.936 207.112H923.927V208.112ZM947.543 221.36L946.711 221.915L946.718 221.925L946.725 221.936L947.543 221.36ZM956.759 252.464H957.759V252.456L957.759 252.448L956.759 252.464ZM950.711 297.104L951.667 297.395L951.669 297.391L950.711 297.104ZM932.567 329.072L933.265 329.788L933.274 329.779L932.567 329.072ZM902.903 340.88L902.884 341.88L902.893 341.88H902.903V340.88ZM878.999 327.92L878.167 328.475L878.174 328.485L878.181 328.496L878.999 327.92ZM870.071 296.528H869.071V296.536L869.071 296.544L870.071 296.528ZM876.119 252.176L877.075 252.467L877.077 252.463L876.119 252.176ZM894.263 220.208L894.961 220.924L894.97 220.915L894.263 220.208ZM925.079 312.656L924.253 312.092L924.248 312.099L924.244 312.106L925.079 312.656ZM936.311 285.296L935.334 285.083L935.331 285.096L936.311 285.296ZM935.447 233.744L934.552 234.191L934.559 234.203L935.447 233.744ZM901.463 236.912L900.637 236.348L900.634 236.353L901.463 236.912ZM890.231 263.984L889.255 263.767L889.253 263.776L889.251 263.784L890.231 263.984ZM891.383 315.824L890.483 316.26L890.488 316.271L891.383 315.824ZM923.908 209.112C933.549 209.297 941.124 213.534 946.711 221.915L948.375 220.805C942.442 211.906 934.273 207.311 923.946 207.112L923.908 209.112ZM946.725 221.936C952.541 230.191 955.569 240.354 955.759 252.48L957.759 252.448C957.564 239.998 954.448 229.425 948.36 220.784L946.725 221.936ZM955.759 252.464C955.759 268.702 953.753 283.484 949.753 296.817L951.669 297.391C955.733 283.844 957.759 268.866 957.759 252.464H955.759ZM949.754 296.813C945.76 309.937 939.785 320.439 931.86 328.365L933.274 329.779C941.476 321.577 947.598 310.767 951.667 297.395L949.754 296.813ZM931.868 328.356C923.999 336.038 914.365 339.88 902.903 339.88V341.88C914.864 341.88 925.006 337.85 933.265 329.788L931.868 328.356ZM902.922 339.88C893.269 339.695 885.592 335.542 879.816 327.344L878.181 328.496C884.309 337.194 892.568 341.681 902.884 341.88L902.922 339.88ZM879.831 327.365C874.196 318.913 871.26 308.644 871.071 296.512L869.071 296.544C869.265 308.988 872.282 319.647 878.167 328.475L879.831 327.365ZM871.071 296.528C871.071 280.29 873.077 265.606 877.075 252.467L875.162 251.885C871.097 265.242 869.071 280.126 869.071 296.528H871.071ZM877.077 252.463C881.072 239.147 887.045 228.651 894.961 220.924L893.564 219.492C885.353 227.509 879.23 238.325 875.161 251.889L877.077 252.463ZM894.97 220.915C902.841 213.044 912.472 209.112 923.927 209.112V207.112C911.958 207.112 901.813 211.244 893.556 219.501L894.97 220.915ZM904.343 325.464C913.354 325.464 920.565 321.329 925.914 313.206L924.244 312.106C919.225 319.727 912.612 323.464 904.343 323.464V325.464ZM925.905 313.22C931.364 305.226 935.155 295.98 937.291 285.496L935.331 285.096C933.243 295.348 929.546 304.342 924.253 312.092L925.905 313.22ZM937.288 285.509C939.603 274.896 940.767 265.223 940.767 256.496H938.767C938.767 265.049 937.626 274.576 935.334 285.083L937.288 285.509ZM940.767 256.496C940.767 246.813 939.317 239.05 936.335 233.285L934.559 234.203C937.336 239.574 938.767 246.979 938.767 256.496H940.767ZM936.341 233.297C934.842 230.298 932.937 227.989 930.601 226.432C928.259 224.871 925.542 224.104 922.487 224.104V226.104C925.192 226.104 927.514 226.777 929.492 228.096C931.476 229.419 933.172 231.43 934.552 234.191L936.341 233.297ZM922.487 224.104C913.478 224.104 906.177 228.236 900.637 236.348L902.289 237.476C907.501 229.844 914.215 226.104 922.487 226.104V224.104ZM900.634 236.353C895.37 244.151 891.582 253.294 889.255 263.767L891.207 264.201C893.488 253.938 897.187 245.033 902.292 237.471L900.634 236.353ZM889.251 263.784C887.128 274.204 886.063 283.776 886.063 292.496H888.063C888.063 283.936 889.109 274.5 891.211 264.184L889.251 263.784ZM886.063 292.496C886.063 302.184 887.514 310.125 890.483 316.26L892.283 315.388C889.491 309.619 888.063 302.008 888.063 292.496H886.063ZM890.488 316.271C891.988 319.27 893.892 321.579 896.228 323.136C898.57 324.697 901.288 325.464 904.343 325.464V323.464C901.638 323.464 899.315 322.791 897.337 321.472C895.353 320.149 893.658 318.138 892.277 315.377L890.488 316.271ZM1145.56 327.056L1144.58 327.23L1144.58 327.265L1144.59 327.299L1145.56 327.056ZM1145.28 336.56L1145.98 337.267L1146.02 337.228L1146.06 337.185L1145.28 336.56ZM1141.24 338.864L1141.61 339.796L1141.61 339.792L1141.24 338.864ZM1129.72 336.848L1128.74 337.014L1128.74 337.036L1128.75 337.058L1129.72 336.848ZM1117.34 263.408L1118.33 263.242L1118.17 262.318L1117.24 262.413L1117.34 263.408ZM1063.77 268.88L1063.67 267.885L1063.09 267.945L1062.85 268.481L1063.77 268.88ZM1036.41 331.664L1037.32 332.087L1037.32 332.075L1037.33 332.063L1036.41 331.664ZM1032.38 337.712L1032.96 338.526L1033 338.5L1033.03 338.471L1032.38 337.712ZM1019.71 338.288L1020.06 337.352L1020.04 337.345L1020.02 337.339L1019.71 338.288ZM1017.98 331.376L1017.06 330.974L1017.06 330.982L1017.98 331.376ZM1095.45 155.12L1096.37 155.522L1096.37 155.521L1095.45 155.12ZM1098.62 149.072L1097.85 148.432L1097.84 148.439L1097.84 148.447L1098.62 149.072ZM1102.94 146.192L1102.62 145.243L1102.59 145.253L1102.57 145.264L1102.94 146.192ZM1113.88 147.632L1112.89 147.715L1112.89 147.76L1112.9 147.805L1113.88 147.632ZM1131.16 245.84L1130.18 246.013L1130.36 247.021L1131.36 246.821L1131.16 245.84ZM1132.6 245.552L1132.48 244.56L1132.44 244.564L1132.41 244.571L1132.6 245.552ZM1142.97 246.704L1142.26 247.411L1142.3 247.45L1142.35 247.485L1142.97 246.704ZM1145.28 252.176L1146.26 252.012L1146.26 251.996L1146.26 251.98L1145.28 252.176ZM1143.26 259.952L1142.85 259.038L1142.83 259.047L1142.81 259.058L1143.26 259.952ZM1134.04 261.968L1133.92 260.976L1132.87 261.106L1133.06 262.142L1134.04 261.968ZM1106.68 200.624L1105.69 200.731L1105.69 200.76L1105.7 200.788L1106.68 200.624ZM1104.09 176.432L1105.09 176.325L1104.68 172.577L1103.17 176.032L1104.09 176.432ZM1071.26 251.6L1070.34 251.2L1069.66 252.765L1071.36 252.595L1071.26 251.6ZM1114.46 247.28L1114.56 248.275L1115.62 248.169L1115.45 247.116L1114.46 247.28ZM1144.59 327.299C1145.16 329.574 1145.43 331.305 1145.43 332.528H1147.43C1147.43 331.063 1147.12 329.146 1146.53 326.813L1144.59 327.299ZM1145.43 332.528C1145.43 334.119 1145.07 335.212 1144.49 335.935L1146.06 337.185C1147.01 335.988 1147.43 334.393 1147.43 332.528H1145.43ZM1144.57 335.853C1143.95 336.473 1142.76 337.181 1140.87 337.936L1141.61 339.792C1143.57 339.011 1145.07 338.183 1145.98 337.267L1144.57 335.853ZM1140.88 337.932C1137.42 339.277 1135.08 339.88 1133.76 339.88V341.88C1135.5 341.88 1138.15 341.139 1141.61 339.796L1140.88 337.932ZM1133.76 339.88C1132.93 339.88 1132.33 339.628 1131.87 339.165C1131.38 338.677 1130.97 337.874 1130.7 336.638L1128.75 337.058C1129.06 338.51 1129.6 339.723 1130.46 340.579C1131.34 341.46 1132.47 341.88 1133.76 341.88V339.88ZM1130.71 336.682L1118.33 263.242L1116.35 263.574L1128.74 337.014L1130.71 336.682ZM1117.24 262.413L1063.67 267.885L1063.87 269.875L1117.44 264.403L1117.24 262.413ZM1062.85 268.481L1035.49 331.265L1037.33 332.063L1064.69 269.279L1062.85 268.481ZM1035.5 331.241C1034.18 334.079 1032.91 335.94 1031.73 336.953L1033.03 338.471C1034.54 337.18 1035.95 335.009 1037.32 332.087L1035.5 331.241ZM1031.8 336.898C1030.65 337.718 1029.23 338.152 1027.48 338.152V340.152C1029.58 340.152 1031.42 339.626 1032.96 338.526L1031.8 336.898ZM1027.48 338.152C1023.84 338.152 1021.41 337.859 1020.06 337.352L1019.36 339.224C1021.07 339.869 1023.83 340.152 1027.48 340.152V338.152ZM1020.02 337.339C1019.28 337.092 1018.82 336.771 1018.54 336.431C1018.27 336.104 1018.11 335.688 1018.11 335.12H1016.11C1016.11 336.088 1016.39 336.968 1016.99 337.697C1017.57 338.413 1018.41 338.908 1019.39 339.237L1020.02 337.339ZM1018.11 335.12C1018.11 334.135 1018.36 333.022 1018.9 331.77L1017.06 330.982C1016.44 332.418 1016.11 333.801 1016.11 335.12H1018.11ZM1018.89 331.778L1096.37 155.522L1094.54 154.718L1017.06 330.974L1018.89 331.778ZM1096.37 155.521C1097.72 152.436 1098.73 150.539 1099.4 149.697L1097.84 148.447C1096.98 149.525 1095.87 151.66 1094.53 154.719L1096.37 155.521ZM1099.39 149.712C1100.21 148.727 1101.49 147.849 1103.31 147.12L1102.57 145.264C1100.55 146.071 1098.95 147.113 1097.85 148.432L1099.39 149.712ZM1103.26 147.141C1105.26 146.472 1106.89 145.976 1108.16 145.648C1109.45 145.313 1110.28 145.176 1110.72 145.176V143.176C1110 143.176 1108.95 143.375 1107.66 143.712C1106.33 144.056 1104.65 144.568 1102.62 145.243L1103.26 147.141ZM1110.72 145.176C1111.46 145.176 1111.91 145.392 1112.21 145.716C1112.53 146.066 1112.8 146.682 1112.89 147.715L1114.88 147.549C1114.77 146.278 1114.42 145.166 1113.68 144.364C1112.92 143.536 1111.89 143.176 1110.72 143.176V145.176ZM1112.9 147.805L1130.18 246.013L1132.15 245.667L1114.87 147.459L1112.9 147.805ZM1131.36 246.821L1132.8 246.533L1132.41 244.571L1130.97 244.859L1131.36 246.821ZM1132.73 246.544C1134.21 246.359 1136.08 246.264 1138.36 246.264V244.264C1136.04 244.264 1134.07 244.361 1132.48 244.56L1132.73 246.544ZM1138.36 246.264C1140.35 246.264 1141.57 246.72 1142.26 247.411L1143.68 245.997C1142.45 244.768 1140.6 244.264 1138.36 244.264V246.264ZM1142.35 247.485C1142.64 247.72 1142.99 248.194 1143.35 249.036C1143.69 249.864 1144.01 250.97 1144.29 252.372L1146.26 251.98C1145.96 250.502 1145.61 249.256 1145.19 248.26C1144.78 247.278 1144.26 246.456 1143.6 245.923L1142.35 247.485ZM1144.29 252.34C1144.68 254.676 1144.85 256.022 1144.85 256.496H1146.85C1146.85 255.818 1146.64 254.284 1146.26 252.012L1144.29 252.34ZM1144.85 256.496C1144.85 257.063 1144.7 257.521 1144.4 257.912C1144.1 258.315 1143.61 258.702 1142.85 259.038L1143.67 260.866C1144.64 260.434 1145.44 259.861 1146 259.112C1146.57 258.351 1146.85 257.465 1146.85 256.496H1144.85ZM1142.81 259.058C1141.45 259.738 1138.54 260.398 1133.92 260.976L1134.17 262.96C1138.76 262.386 1142 261.702 1143.71 260.846L1142.81 259.058ZM1133.06 262.142L1144.58 327.23L1146.55 326.882L1135.03 261.794L1133.06 262.142ZM1107.68 200.517L1105.09 176.325L1103.1 176.539L1105.69 200.731L1107.68 200.517ZM1103.17 176.032L1070.34 251.2L1072.18 252L1105.01 176.832L1103.17 176.032ZM1071.36 252.595L1114.56 248.275L1114.36 246.285L1071.16 250.605L1071.36 252.595ZM1115.45 247.116L1107.67 200.46L1105.7 200.788L1113.47 247.444L1115.45 247.116ZM1254.56 219.92L1253.74 220.484L1253.74 220.493L1254.56 219.92ZM1256.58 295.952L1257.54 296.239L1257.54 296.236L1256.58 295.952ZM1238.43 328.208L1237.73 327.501L1237.72 327.509L1238.43 328.208ZM1187.17 333.104L1187.72 332.269L1186.38 331.389L1186.18 332.976L1187.17 333.104ZM1184.58 353.264L1185.57 353.402L1185.57 353.392L1184.58 353.264ZM1180.55 384.656L1179.55 384.549L1179.55 384.551L1180.55 384.656ZM1178.53 391.856L1177.76 391.216L1177.73 391.257L1177.7 391.301L1178.53 391.856ZM1173.92 394.448L1174.16 395.418L1174.16 395.418L1173.92 394.448ZM1162.69 394.16L1163.55 393.646L1163.52 393.601L1163.49 393.56L1162.69 394.16ZM1162.11 389.552L1163.11 389.635L1163.11 389.594V389.552H1162.11ZM1167.3 352.4L1166.31 352.25L1166.31 352.26L1167.3 352.4ZM1177.95 274.64L1176.96 274.515L1176.96 274.522L1177.95 274.64ZM1183.43 210.992L1182.66 210.352L1182.65 210.359L1182.65 210.367L1183.43 210.992ZM1189.19 208.4L1189.02 207.414L1189.01 207.416L1188.99 207.419L1189.19 208.4ZM1200.13 208.688L1199.27 209.202L1199.3 209.247L1199.33 209.288L1200.13 208.688ZM1200.71 213.584L1199.71 213.507L1199.71 213.513L1200.71 213.584ZM1199.55 229.712L1198.56 229.641L1198.28 233.463L1200.39 230.262L1199.55 229.712ZM1214.24 213.584L1214.81 214.406L1214.82 214.399L1214.83 214.391L1214.24 213.584ZM1230.37 311.792L1229.55 311.224L1229.54 311.231L1229.54 311.237L1230.37 311.792ZM1242.18 283.28L1241.2 283.074L1241.2 283.074L1242.18 283.28ZM1241.6 232.88L1240.71 233.34L1240.71 233.34L1241.6 232.88ZM1214.24 234.032L1214.99 234.701L1214.99 234.695L1215 234.689L1214.24 234.032ZM1200.71 255.632L1199.79 255.226L1199.79 255.234L1199.78 255.243L1200.71 255.632ZM1193.79 280.688L1194.79 280.813L1194.79 280.806L1193.79 280.688ZM1189.19 317.264L1188.19 317.139L1188.11 317.77L1188.65 318.109L1189.19 317.264ZM1198.98 322.448L1198.61 323.376L1198.64 323.391L1198.68 323.402L1198.98 322.448ZM1232.39 209.112C1241.46 209.112 1248.54 212.88 1253.74 220.484L1255.39 219.356C1249.83 211.216 1242.13 207.112 1232.39 207.112V209.112ZM1253.74 220.493C1258.96 227.945 1261.63 238.372 1261.63 251.888H1263.63C1263.63 238.14 1260.92 227.255 1255.38 219.347L1253.74 220.493ZM1261.63 251.888C1261.63 267.546 1259.62 282.138 1255.62 295.668L1257.54 296.236C1261.6 282.502 1263.63 267.718 1263.63 251.888H1261.63ZM1255.62 295.665C1251.62 308.982 1245.65 319.578 1237.73 327.501L1239.14 328.915C1247.35 320.71 1253.47 309.802 1257.54 296.239L1255.62 295.665ZM1237.72 327.509C1230.03 335.387 1220.88 339.304 1210.21 339.304V341.304C1221.43 341.304 1231.1 337.157 1239.15 328.907L1237.72 327.509ZM1210.21 339.304C1202.36 339.304 1194.87 336.971 1187.72 332.269L1186.62 333.939C1194.07 338.837 1201.93 341.304 1210.21 341.304V339.304ZM1186.18 332.976L1183.59 353.136L1185.57 353.392L1188.16 333.232L1186.18 332.976ZM1183.59 353.126C1181.67 366.953 1180.32 377.429 1179.55 384.549L1181.54 384.763C1182.31 377.675 1183.65 367.223 1185.57 353.402L1183.59 353.126ZM1179.55 384.551C1179.36 386.343 1179.11 387.795 1178.79 388.922C1178.47 390.065 1178.11 390.797 1177.76 391.216L1179.3 392.496C1179.91 391.763 1180.36 390.719 1180.72 389.462C1181.07 388.189 1181.35 386.617 1181.54 384.761L1179.55 384.551ZM1177.7 391.301C1177.14 392.142 1175.9 392.922 1173.68 393.478L1174.16 395.418C1176.55 394.822 1178.39 393.874 1179.36 392.411L1177.7 391.301ZM1173.68 393.478C1170.65 394.235 1168.15 394.6 1166.15 394.6V396.6C1168.37 396.6 1171.05 396.197 1174.16 395.418L1173.68 393.478ZM1166.15 394.6C1164.57 394.6 1163.86 394.163 1163.55 393.646L1161.83 394.674C1162.67 396.077 1164.27 396.6 1166.15 396.6V394.6ZM1163.49 393.56C1163.35 393.376 1163.19 392.998 1163.11 392.308C1163.02 391.633 1163.02 390.748 1163.11 389.635L1161.12 389.469C1161.02 390.66 1161.01 391.695 1161.12 392.556C1161.23 393.402 1161.45 394.176 1161.89 394.76L1163.49 393.56ZM1163.11 389.552C1163.11 389.6 1163.11 389.6 1163.13 389.453C1163.14 389.342 1163.16 389.182 1163.19 388.972C1163.24 388.553 1163.32 387.945 1163.43 387.148C1163.64 385.554 1163.97 383.21 1164.4 380.114C1165.26 373.923 1166.56 364.732 1168.29 352.54L1166.31 352.26C1164.58 364.452 1163.28 373.645 1162.42 379.838C1161.99 382.934 1161.66 385.282 1161.45 386.88C1161.34 387.679 1161.26 388.292 1161.2 388.719C1161.18 388.932 1161.15 389.101 1161.14 389.225C1161.13 389.314 1161.11 389.456 1161.11 389.552H1163.11ZM1168.29 352.55C1172.7 323.358 1176.26 297.427 1178.95 274.758L1176.96 274.522C1174.27 297.165 1170.72 323.074 1166.31 352.25L1168.29 352.55ZM1178.95 274.765C1181.83 251.896 1183.27 233.034 1183.27 218.192H1181.27C1181.27 232.918 1179.84 251.688 1176.96 274.515L1178.95 274.765ZM1183.27 218.192C1183.27 216.298 1183.37 214.797 1183.55 213.67C1183.74 212.504 1183.99 211.884 1184.21 211.617L1182.65 210.367C1182.09 211.06 1181.77 212.12 1181.57 213.354C1181.37 214.627 1181.27 216.246 1181.27 218.192H1183.27ZM1184.19 211.632C1184.92 210.759 1186.54 209.948 1189.38 209.381L1188.99 207.419C1186.07 208.004 1183.85 208.921 1182.66 210.352L1184.19 211.632ZM1189.35 209.386C1191.65 209.003 1193.42 208.715 1194.67 208.524C1195.29 208.429 1195.77 208.358 1196.12 208.311C1196.3 208.288 1196.43 208.271 1196.54 208.26C1196.65 208.249 1196.68 208.248 1196.67 208.248V206.248C1196.5 206.248 1196.2 206.284 1195.86 206.329C1195.49 206.378 1194.99 206.451 1194.36 206.548C1193.11 206.741 1191.33 207.029 1189.02 207.414L1189.35 209.386ZM1196.67 208.248C1198.25 208.248 1198.96 208.685 1199.27 209.202L1200.99 208.173C1200.15 206.771 1198.55 206.248 1196.67 206.248V208.248ZM1199.33 209.288C1199.46 209.463 1199.62 209.855 1199.71 210.605C1199.8 211.333 1199.8 212.294 1199.71 213.507L1201.7 213.661C1201.8 212.378 1201.81 211.275 1201.7 210.371C1201.6 209.489 1201.37 208.681 1200.93 208.088L1199.33 209.288ZM1199.71 213.513L1198.56 229.641L1200.55 229.783L1201.7 213.655L1199.71 213.513ZM1200.39 230.262C1205.15 223.03 1209.96 217.765 1214.81 214.406L1213.67 212.762C1208.54 216.315 1203.56 221.802 1198.72 229.162L1200.39 230.262ZM1214.83 214.391C1219.63 210.887 1225.46 209.112 1232.39 209.112V207.112C1225.1 207.112 1218.84 208.985 1213.65 212.777L1214.83 214.391ZM1208.77 324.888C1218.16 324.888 1225.66 320.664 1231.2 312.347L1229.54 311.237C1224.33 319.048 1217.43 322.888 1208.77 322.888V324.888ZM1231.19 312.36C1236.85 304.173 1240.83 294.542 1243.16 283.486L1241.2 283.074C1238.92 293.906 1235.03 303.283 1229.55 311.224L1231.19 312.36ZM1243.16 283.486C1245.47 272.488 1246.63 262.338 1246.63 253.04H1244.63C1244.63 262.174 1243.49 272.184 1241.2 283.074L1243.16 283.486ZM1246.63 253.04C1246.63 244.686 1245.28 237.792 1242.49 232.42L1240.71 233.34C1243.3 238.336 1244.63 244.882 1244.63 253.04H1246.63ZM1242.49 232.42C1241.09 229.712 1239.33 227.623 1237.18 226.213C1235.04 224.799 1232.56 224.104 1229.79 224.104V226.104C1232.21 226.104 1234.3 226.705 1236.08 227.883C1237.88 229.065 1239.43 230.864 1240.71 233.34L1242.49 232.42ZM1229.79 224.104C1224.2 224.104 1218.76 227.32 1213.49 233.375L1215 234.689C1220.09 228.84 1225.02 226.104 1229.79 226.104V224.104ZM1213.5 233.363C1208.23 239.216 1203.67 246.51 1199.79 255.226L1201.62 256.038C1205.43 247.474 1209.89 240.368 1214.99 234.701L1213.5 233.363ZM1199.78 255.243C1196.11 263.956 1193.77 272.4 1192.8 280.57L1194.79 280.806C1195.73 272.848 1198.01 264.588 1201.63 256.021L1199.78 255.243ZM1192.8 280.563L1188.19 317.139L1190.18 317.389L1194.79 280.813L1192.8 280.563ZM1188.65 318.109C1192.33 320.434 1195.65 322.195 1198.61 323.376L1199.35 321.52C1196.54 320.397 1193.33 318.702 1189.72 316.419L1188.65 318.109ZM1198.68 323.402C1201.86 324.395 1205.22 324.888 1208.77 324.888V322.888C1205.41 322.888 1202.24 322.421 1199.28 321.494L1198.68 323.402ZM1363.69 219.92L1362.86 220.484L1362.87 220.493L1363.69 219.92ZM1365.7 295.952L1366.66 296.239L1366.66 296.236L1365.7 295.952ZM1347.56 328.208L1346.85 327.501L1346.84 327.509L1347.56 328.208ZM1296.3 333.104L1296.84 332.269L1295.51 331.389L1295.3 332.976L1296.3 333.104ZM1293.7 353.264L1294.69 353.402L1294.69 353.392L1293.7 353.264ZM1289.67 384.656L1288.68 384.549L1288.68 384.551L1289.67 384.656ZM1287.66 391.856L1286.89 391.216L1286.85 391.257L1286.82 391.301L1287.66 391.856ZM1283.05 394.448L1283.29 395.418L1283.29 395.418L1283.05 394.448ZM1271.82 394.16L1272.67 393.646L1272.65 393.601L1272.61 393.56L1271.82 394.16ZM1271.24 389.552L1272.24 389.635L1272.24 389.594V389.552H1271.24ZM1276.42 352.4L1275.43 352.25L1275.43 352.26L1276.42 352.4ZM1287.08 274.64L1286.09 274.515L1286.09 274.522L1287.08 274.64ZM1292.55 210.992L1291.78 210.352L1291.78 210.359L1291.77 210.367L1292.55 210.992ZM1298.31 208.4L1298.15 207.414L1298.13 207.416L1298.11 207.419L1298.31 208.4ZM1309.26 208.688L1308.4 209.202L1308.42 209.247L1308.46 209.288L1309.26 208.688ZM1309.83 213.584L1308.83 213.507L1308.83 213.513L1309.83 213.584ZM1308.68 229.712L1307.68 229.641L1307.41 233.463L1309.51 230.262L1308.68 229.712ZM1323.37 213.584L1323.94 214.406L1323.95 214.399L1323.96 214.391L1323.37 213.584ZM1339.5 311.792L1338.67 311.224L1338.67 311.231L1338.66 311.237L1339.5 311.792ZM1351.3 283.28L1350.32 283.074L1350.32 283.074L1351.3 283.28ZM1350.73 232.88L1349.84 233.34L1349.84 233.34L1350.73 232.88ZM1323.37 234.032L1324.11 234.701L1324.12 234.695L1324.12 234.689L1323.37 234.032ZM1309.83 255.632L1308.92 255.226L1308.91 255.234L1308.91 255.243L1309.83 255.632ZM1302.92 280.688L1303.91 280.813L1303.91 280.806L1302.92 280.688ZM1298.31 317.264L1297.32 317.139L1297.24 317.77L1297.78 318.109L1298.31 317.264ZM1308.1 322.448L1307.73 323.376L1307.77 323.391L1307.8 323.402L1308.1 322.448ZM1341.51 209.112C1350.58 209.112 1357.67 212.88 1362.86 220.484L1364.51 219.356C1358.95 211.216 1351.25 207.112 1341.51 207.112V209.112ZM1362.87 220.493C1368.08 227.945 1370.75 238.372 1370.75 251.888H1372.75C1372.75 238.14 1370.04 227.255 1364.51 219.347L1362.87 220.493ZM1370.75 251.888C1370.75 267.546 1368.75 282.138 1364.74 295.668L1366.66 296.236C1370.72 282.502 1372.75 267.718 1372.75 251.888H1370.75ZM1364.75 295.665C1360.75 308.982 1354.77 319.578 1346.85 327.501L1348.27 328.915C1356.47 320.71 1362.59 309.802 1366.66 296.239L1364.75 295.665ZM1346.84 327.509C1339.15 335.387 1330 339.304 1319.34 339.304V341.304C1330.56 341.304 1340.22 337.157 1348.27 328.907L1346.84 327.509ZM1319.34 339.304C1311.48 339.304 1303.99 336.971 1296.84 332.269L1295.75 333.939C1303.19 338.837 1311.06 341.304 1319.34 341.304V339.304ZM1295.3 332.976L1292.71 353.136L1294.69 353.392L1297.29 333.232L1295.3 332.976ZM1292.71 353.126C1290.79 366.953 1289.45 377.429 1288.68 384.549L1290.67 384.763C1291.43 377.675 1292.77 367.223 1294.69 353.402L1292.71 353.126ZM1288.68 384.551C1288.49 386.343 1288.23 387.795 1287.92 388.922C1287.6 390.065 1287.24 390.797 1286.89 391.216L1288.42 392.496C1289.03 391.763 1289.49 390.719 1289.84 389.462C1290.2 388.189 1290.47 386.617 1290.67 384.761L1288.68 384.551ZM1286.82 391.301C1286.26 392.142 1285.03 392.922 1282.8 393.478L1283.29 395.418C1285.68 394.822 1287.51 393.874 1288.49 392.411L1286.82 391.301ZM1282.8 393.478C1279.78 394.235 1277.27 394.6 1275.27 394.6V396.6C1277.49 396.6 1280.17 396.197 1283.29 395.418L1282.8 393.478ZM1275.27 394.6C1273.69 394.6 1272.98 394.163 1272.67 393.646L1270.96 394.674C1271.8 396.077 1273.4 396.6 1275.27 396.6V394.6ZM1272.61 393.56C1272.48 393.376 1272.32 392.998 1272.23 392.308C1272.15 391.633 1272.14 390.748 1272.24 389.635L1270.24 389.469C1270.14 390.66 1270.14 391.695 1270.25 392.556C1270.35 393.402 1270.58 394.176 1271.02 394.76L1272.61 393.56ZM1272.24 389.552C1272.24 389.6 1272.24 389.6 1272.25 389.453C1272.27 389.342 1272.29 389.182 1272.31 388.972C1272.37 388.553 1272.45 387.945 1272.55 387.148C1272.77 385.554 1273.09 383.21 1273.53 380.114C1274.39 373.923 1275.69 364.732 1277.41 352.54L1275.43 352.26C1273.7 364.452 1272.41 373.645 1271.54 379.838C1271.11 382.934 1270.79 385.282 1270.57 386.88C1270.46 387.679 1270.38 388.292 1270.33 388.719C1270.3 388.932 1270.28 389.101 1270.27 389.225C1270.26 389.314 1270.24 389.456 1270.24 389.552H1272.24ZM1277.41 352.55C1281.83 323.358 1285.38 297.427 1288.07 274.758L1286.09 274.522C1283.4 297.165 1279.85 323.074 1275.43 352.25L1277.41 352.55ZM1288.07 274.765C1290.95 251.896 1292.4 233.034 1292.4 218.192H1290.4C1290.4 232.918 1288.96 251.688 1286.09 274.515L1288.07 274.765ZM1292.4 218.192C1292.4 216.298 1292.49 214.797 1292.67 213.67C1292.86 212.504 1293.12 211.884 1293.33 211.617L1291.77 210.367C1291.22 211.06 1290.9 212.12 1290.7 213.354C1290.5 214.627 1290.4 216.246 1290.4 218.192H1292.4ZM1293.32 211.632C1294.05 210.759 1295.67 209.948 1298.51 209.381L1298.11 207.419C1295.19 208.004 1292.98 208.921 1291.78 210.352L1293.32 211.632ZM1298.48 209.386C1300.78 209.003 1302.55 208.715 1303.79 208.524C1304.41 208.429 1304.9 208.358 1305.25 208.311C1305.42 208.288 1305.56 208.271 1305.66 208.26C1305.77 208.249 1305.81 208.248 1305.8 208.248V206.248C1305.62 206.248 1305.32 206.284 1304.98 206.329C1304.61 206.378 1304.11 206.451 1303.49 206.548C1302.23 206.741 1300.45 207.029 1298.15 207.414L1298.48 209.386ZM1305.8 208.248C1307.38 208.248 1308.09 208.685 1308.4 209.202L1310.11 208.173C1309.27 206.771 1307.67 206.248 1305.8 206.248V208.248ZM1308.46 209.288C1308.59 209.463 1308.75 209.855 1308.84 210.605C1308.92 211.333 1308.93 212.294 1308.83 213.507L1310.83 213.661C1310.93 212.378 1310.93 211.275 1310.82 210.371C1310.72 209.489 1310.5 208.681 1310.06 208.088L1308.46 209.288ZM1308.83 213.513L1307.68 229.641L1309.68 229.783L1310.83 213.655L1308.83 213.513ZM1309.51 230.262C1314.27 223.03 1319.09 217.765 1323.94 214.406L1322.8 212.762C1317.66 216.315 1312.69 221.802 1307.84 229.162L1309.51 230.262ZM1323.96 214.391C1328.75 210.887 1334.59 209.112 1341.51 209.112V207.112C1334.23 207.112 1327.96 208.985 1322.78 212.777L1323.96 214.391ZM1317.9 324.888C1327.28 324.888 1334.78 320.664 1340.33 312.347L1338.66 311.237C1333.46 319.048 1326.56 322.888 1317.9 322.888V324.888ZM1340.32 312.36C1345.97 304.173 1349.95 294.542 1352.28 283.486L1350.32 283.074C1348.04 293.906 1344.15 303.283 1338.67 311.224L1340.32 312.36ZM1352.28 283.486C1354.6 272.488 1355.76 262.338 1355.76 253.04H1353.76C1353.76 262.174 1352.62 272.184 1350.32 283.074L1352.28 283.486ZM1355.76 253.04C1355.76 244.686 1354.4 237.792 1351.61 232.42L1349.84 233.34C1352.43 238.336 1353.76 244.882 1353.76 253.04H1355.76ZM1351.61 232.42C1350.21 229.712 1348.45 227.623 1346.31 226.213C1344.16 224.799 1341.69 224.104 1338.92 224.104V226.104C1341.34 226.104 1343.42 226.705 1345.21 227.883C1347 229.065 1348.56 230.864 1349.84 233.34L1351.61 232.42ZM1338.92 224.104C1333.32 224.104 1327.89 227.32 1322.61 233.375L1324.12 234.689C1329.21 228.84 1334.15 226.104 1338.92 226.104V224.104ZM1322.62 233.363C1317.36 239.216 1312.79 246.51 1308.92 255.226L1310.74 256.038C1314.55 247.474 1319.01 240.368 1324.11 234.701L1322.62 233.363ZM1308.91 255.243C1305.23 263.956 1302.9 272.4 1301.93 280.57L1303.91 280.806C1304.86 272.848 1307.14 264.588 1310.75 256.021L1308.91 255.243ZM1301.93 280.563L1297.32 317.139L1299.3 317.389L1303.91 280.813L1301.93 280.563ZM1297.78 318.109C1301.46 320.434 1304.78 322.195 1307.73 323.376L1308.47 321.52C1305.67 320.397 1302.46 318.702 1298.84 316.419L1297.78 318.109ZM1307.8 323.402C1310.98 324.395 1314.35 324.888 1317.9 324.888V322.888C1314.53 322.888 1311.37 322.421 1308.4 321.494L1307.8 323.402ZM1446.6 232.304L1447.44 231.749L1447.42 231.728L1447.41 231.708L1446.6 232.304ZM1416.94 227.12L1417.54 227.92L1417.55 227.914L1416.94 227.12ZM1416.65 251.024L1415.85 251.624L1415.87 251.647L1415.89 251.668L1416.65 251.024ZM1432.2 264.56L1432.81 263.764L1432.8 263.759L1432.8 263.755L1432.2 264.56ZM1448.62 330.512L1449.28 331.266L1448.62 330.512ZM1399.08 333.968L1398.55 334.815L1399.08 333.968ZM1382.38 317.264L1381.49 317.711L1381.51 317.758L1381.54 317.802L1382.38 317.264ZM1386.99 307.472L1387.52 308.317L1387.56 308.296L1387.59 308.272L1386.99 307.472ZM1396.49 308.048L1395.65 308.585L1395.65 308.594L1395.66 308.603L1396.49 308.048ZM1407.44 319.28L1406.87 320.106L1406.88 320.112L1406.89 320.118L1407.44 319.28ZM1436.81 318.128L1436.14 317.386L1436.13 317.395L1436.12 317.403L1436.81 318.128ZM1437.68 291.92L1436.91 292.568L1436.93 292.588L1436.95 292.608L1437.68 291.92ZM1422.99 278.672L1422.36 279.453L1422.37 279.46L1422.38 279.466L1422.99 278.672ZM1417.23 274.064L1417.85 273.283L1417.85 273.279L1417.23 274.064ZM1400.81 257.648L1399.98 258.209L1399.99 258.217L1399.99 258.223L1400.81 257.648ZM1405.13 215.6L1405.78 216.361L1405.78 216.361L1405.13 215.6ZM1462.16 225.392L1463.05 224.945L1463.04 224.931L1463.04 224.917L1462.16 225.392ZM1461.58 231.152L1462.2 231.933L1462.2 231.933L1461.58 231.152ZM1456.4 234.32L1456.78 235.243L1456.83 235.224L1456.87 235.2L1456.4 234.32ZM1447.41 231.708C1442.81 225.507 1436.65 222.376 1429.04 222.376V224.376C1436.01 224.376 1441.57 227.197 1445.8 232.9L1447.41 231.708ZM1429.04 222.376C1424.05 222.376 1419.8 223.675 1416.33 226.326L1417.55 227.914C1420.61 225.573 1424.42 224.376 1429.04 224.376V222.376ZM1416.34 226.32C1412.93 228.874 1411.33 232.972 1411.33 238.352H1413.33C1413.33 233.364 1414.8 229.974 1417.54 227.92L1416.34 226.32ZM1411.33 238.352C1411.33 243.186 1412.85 247.619 1415.85 251.624L1417.45 250.424C1414.7 246.749 1413.33 242.734 1413.33 238.352H1411.33ZM1415.89 251.668C1419.04 255.408 1424.3 259.976 1431.61 265.365L1432.8 263.755C1425.52 258.392 1420.41 253.936 1417.42 250.38L1415.89 251.668ZM1431.6 265.356C1441.17 272.631 1448.1 279.005 1452.44 284.477L1454.01 283.235C1449.52 277.571 1442.44 271.081 1432.81 263.764L1431.6 265.356ZM1452.44 284.477C1456.7 289.845 1458.85 296.434 1458.85 304.304H1460.85C1460.85 296.046 1458.59 289.003 1454.01 283.235L1452.44 284.477ZM1458.85 304.304C1458.85 314.992 1455.21 323.441 1447.96 329.758L1449.28 331.266C1457.01 324.527 1460.85 315.504 1460.85 304.304H1458.85ZM1447.96 329.758C1440.68 336.111 1431.7 339.304 1420.97 339.304V341.304C1432.13 341.304 1441.59 337.969 1449.28 331.266L1447.96 329.758ZM1420.97 339.304C1413.29 339.304 1406.18 337.246 1399.62 333.121L1398.55 334.815C1405.43 339.138 1412.91 341.304 1420.97 341.304V339.304ZM1399.62 333.121C1393.03 328.979 1387.56 323.517 1383.22 316.726L1381.54 317.802C1386.03 324.835 1391.7 330.509 1398.55 334.815L1399.62 333.121ZM1383.27 316.817C1382.75 315.758 1382.52 314.857 1382.52 314.096H1380.52C1380.52 315.255 1380.86 316.466 1381.49 317.711L1383.27 316.817ZM1382.52 314.096C1382.52 313.344 1382.84 312.481 1383.65 311.493C1384.47 310.501 1385.75 309.439 1387.52 308.317L1386.45 306.627C1384.58 307.809 1383.12 309.003 1382.11 310.219C1381.11 311.439 1380.52 312.736 1380.52 314.096H1382.52ZM1387.59 308.272C1389.88 306.554 1391.47 305.88 1392.46 305.88V303.88C1390.76 303.88 1388.71 304.934 1386.39 306.672L1387.59 308.272ZM1392.46 305.88C1393.25 305.88 1394.33 306.521 1395.65 308.585L1397.34 307.511C1395.96 305.351 1394.36 303.88 1392.46 303.88V305.88ZM1395.66 308.603C1398.8 313.309 1402.53 317.148 1406.87 320.106L1408 318.454C1403.89 315.652 1400.33 312.003 1397.32 307.493L1395.66 308.603ZM1406.89 320.118C1411.46 323.097 1416.35 324.6 1421.55 324.6V322.6C1416.76 322.6 1412.25 321.223 1407.98 318.442L1406.89 320.118ZM1421.55 324.6C1428.09 324.6 1433.44 322.711 1437.5 318.853L1436.12 317.403C1432.5 320.841 1427.68 322.6 1421.55 322.6V324.6ZM1437.48 318.87C1441.71 315.042 1443.86 310.362 1443.86 304.88H1441.86C1441.86 309.766 1439.98 313.918 1436.14 317.386L1437.48 318.87ZM1443.86 304.88C1443.86 299.63 1442.03 295.065 1438.4 291.232L1436.95 292.608C1440.23 296.071 1441.86 300.146 1441.86 304.88H1443.86ZM1438.44 291.272C1435.11 287.355 1430.15 282.889 1423.6 277.878L1422.38 279.466C1428.88 284.439 1433.72 288.805 1436.91 292.568L1438.44 291.272ZM1423.61 277.891L1417.85 273.283L1416.6 274.845L1422.36 279.453L1423.61 277.891ZM1417.85 273.279C1410.6 267.554 1405.2 262.15 1401.63 257.073L1399.99 258.223C1403.72 263.514 1409.27 269.054 1416.61 274.849L1417.85 273.279ZM1401.64 257.086C1398.12 251.905 1396.34 245.581 1396.34 238.064H1394.34C1394.34 245.907 1396.2 252.639 1399.98 258.209L1401.64 257.086ZM1396.34 238.064C1396.34 228.917 1399.5 221.719 1405.78 216.361L1404.48 214.839C1397.71 220.617 1394.34 228.395 1394.34 238.064H1396.34ZM1405.78 216.361C1412.1 210.969 1420.02 208.248 1429.61 208.248V206.248C1419.62 206.248 1411.22 209.095 1404.48 214.839L1405.78 216.361ZM1429.61 208.248C1437.06 208.248 1443.39 209.733 1448.64 212.657C1453.88 215.579 1458.09 219.968 1461.28 225.867L1463.04 224.917C1459.69 218.72 1455.22 214.037 1449.61 210.911C1444.01 207.787 1437.33 206.248 1429.61 206.248V208.248ZM1461.26 225.839C1461.81 226.935 1462.02 227.731 1462.02 228.272H1464.02C1464.02 227.277 1463.65 226.153 1463.05 224.945L1461.26 225.839ZM1462.02 228.272C1462.02 229.097 1461.7 229.778 1460.96 230.371L1462.2 231.933C1463.38 230.99 1464.02 229.751 1464.02 228.272H1462.02ZM1460.96 230.371C1460.07 231.077 1458.42 232.097 1455.92 233.44L1456.87 235.2C1459.37 233.855 1461.17 232.763 1462.2 231.933L1460.96 230.371ZM1456.01 233.397C1454.88 233.869 1453.93 234.214 1453.16 234.441C1452.38 234.671 1451.84 234.76 1451.5 234.76V236.76C1452.12 236.76 1452.88 236.609 1453.73 236.359C1454.59 236.106 1455.61 235.731 1456.78 235.243L1456.01 233.397ZM1451.5 234.76C1450.27 234.76 1448.9 233.948 1447.44 231.749L1445.77 232.859C1447.38 235.268 1449.27 236.76 1451.5 236.76V234.76Z" fill="#00D1FF"/>
</svg>
