<svg width="270" height="246" viewBox="0 0 270 246" fill="none" xmlns="http://www.w3.org/2000/svg">
<path d="M148.05 112.817C133.033 110.064 117.182 111.878 111.134 113.13C105.878 113.935 101.435 115.759 99.8708 116.571C98.6194 120.826 104.772 127.73 108.005 130.65C124.774 148.169 145.443 137.741 153.681 130.337C160.94 126.583 161.711 119.595 161.19 116.571C159.188 115.57 151.596 113.651 148.05 112.817Z" fill="#202583"/>
<path d="M118.884 125.141C120.386 123.139 119.718 115.964 119.197 112.627C124.202 115.63 136.717 114.087 142.348 112.94C140.846 121.7 142.557 125.141 143.599 125.767C146.102 128.019 151.316 130.46 153.611 131.398C146.853 141.409 135.778 149.335 131.085 152.046C124.328 149.544 113.461 137.238 108.873 131.398C113.128 129.646 117.32 126.497 118.884 125.141Z" fill="url(#paint0_linear)"/>
<path d="M119.51 114.817L119.197 112.627C128.708 117.132 138.594 114.713 142.348 112.94L141.722 118.571C132.337 120.448 122.847 116.798 119.51 114.817Z" fill="black" fill-opacity="0.37"/>
<path d="M126.705 146.415C122.451 143.912 113.461 135.152 109.498 131.085L108.873 131.398C116.381 141.91 126.392 150.169 131.085 152.359C144.6 143.349 151.734 134.631 153.611 131.398L151.421 130.46L151.108 131.085C147.103 136.341 138.802 143.495 135.152 146.415C131.899 149.669 128.165 147.771 126.705 146.415Z" fill="black" fill-opacity="0.33"/>
<path d="M89.5466 130.65C84.7913 132.151 84.2281 135.238 84.541 136.594C91.2986 148.608 115.722 155.574 127.089 157.555C130.843 159.057 133.033 158.181 133.659 157.555L144.609 155.052C163.38 149.796 173.287 141.6 175.894 138.158C178.147 134.154 174.121 131.484 171.827 130.65C169.324 130.399 168.698 128.251 168.698 127.208C168.448 124.706 167.968 122.62 167.76 121.89C166.508 118.386 162.858 116.884 161.19 116.571C161.69 117.322 160.564 120.221 159.938 121.577C158.187 124.33 151.283 133.361 148.05 137.533C143.545 142.288 135.327 148.482 131.782 150.985C131.031 151.736 130.426 151.507 130.217 151.298L128.653 150.359C126.15 149.108 121.145 144.415 118.955 142.225C113.949 137.72 106.024 128.043 102.686 123.767C100.434 121.264 99.8708 117.927 99.8708 116.571C94.8651 117.823 93.1966 121.473 92.988 123.141C92.7377 123.642 92.4666 125.853 92.3623 126.896C92.3623 129.649 90.4852 130.545 89.5466 130.65Z" fill="#0B5BA4"/>
<path d="M67.889 152.046C68.3896 151.045 80.1946 142.869 86.0345 138.907C117.57 164.936 159.033 149.544 175.823 138.594L193.343 152.046C196.597 154.8 196.784 161.536 196.471 164.561C131.148 201.853 81.6546 180.099 65.0734 164.561C64.8231 158.053 66.8462 153.506 67.889 152.046Z" fill="url(#paint1_linear)"/>
<path d="M84.783 72.2689C83.2813 64.2599 88.12 61.6319 90.7272 61.3191C100.738 63.5716 100.321 78.1089 98.8613 85.0959C98.8613 87.3484 96.5671 87.4944 95.4199 87.2859C86.6601 83.2813 84.6787 75.606 84.783 72.2689Z" fill="#FFAC8A"/>
<path d="M92.2914 74.146C92.5417 72.3941 89.2672 69.6618 87.5986 68.5147C91.6031 68.2644 95.5242 74.2503 96.9842 77.2746C98.7362 82.5305 96.0457 83.6359 94.4814 83.5316C91.3529 82.2802 91.9786 76.336 92.2914 74.146Z" fill="#DE6A77"/>
<path d="M93.23 65.0733C89.726 63.8219 86.2429 65.0733 85.0958 65.699C85.5964 63.4465 89.1629 61.7362 90.7272 61.3191C92.9797 61.3191 93.3343 63.8219 93.23 65.0733Z" fill="#FFC1A8"/>
<path d="M175.04 72.2689C176.541 64.2599 171.702 61.6319 169.095 61.3191C159.082 63.5716 159.5 78.1089 160.96 85.0959C160.96 87.3484 163.254 87.4944 164.401 87.2859C173.162 83.2813 175.144 75.606 175.04 72.2689Z" fill="#FFAC8A"/>
<path d="M167.53 74.146C167.28 72.3941 170.555 69.6618 172.224 68.5147C168.219 68.2644 164.297 74.2503 162.837 77.2746C161.085 82.5305 163.776 83.6359 165.34 83.5316C168.469 82.2802 167.843 76.336 167.53 74.146Z" fill="#DE6A77"/>
<path d="M166.592 65.0733C170.096 63.8219 173.579 65.0733 174.727 65.699C174.226 63.4465 170.659 61.7362 169.095 61.3191C166.842 61.3191 166.487 63.8219 166.592 65.0733Z" fill="#FFC1A8"/>
<path d="M102.469 97.0115C101.089 94.7117 99.2112 86.8542 98.4446 83.2129C95.2249 66.6546 95.5699 55.6158 96.1448 52.1662C105.804 37.4477 125.467 32.6182 134.091 32.0432C146.51 31.5833 158.813 44.117 163.413 50.4413C164.793 54.1209 163.988 70.7559 163.413 78.6134L162.263 84.3628L161.113 89.5373C160.193 95.0567 158.047 98.7363 157.089 99.8862C147.889 113.225 135.241 116.176 130.066 115.985C116.268 115.525 105.919 103.144 102.469 97.0115Z" fill="#FEAFA0"/>
<path d="M106.494 79.7634C103.044 78.6136 103.902 72.0335 104.773 67.149C108.43 59.3338 120.664 55.0541 126.324 53.8911C128.936 60.0316 127.413 71.3357 126.324 76.2202C123.712 84.5936 112.589 80.9264 106.494 79.7634Z" fill="#FF9693" fill-opacity="0.33"/>
<path d="M156.514 79.1884C158.603 78.0719 159.684 71.9991 158.813 67.1146C155.156 59.2995 142.918 56.2039 137.258 55.0409C134.646 61.1814 136.17 72.4855 137.258 77.37C139.87 85.7434 150.418 80.3514 156.514 79.1884Z" fill="#FF9693" fill-opacity="0.33"/>
<path d="M111.668 56.7658C106.149 60.4454 105.152 64.4317 105.344 65.9648C106.264 65.0449 109.56 62.8985 111.093 61.9403C114.313 59.6405 119.717 58.6823 122.017 58.4906C124.777 57.1108 123.934 54.0827 123.167 52.7412C118.567 53.2012 113.585 55.6159 111.668 56.7658Z" fill="#20007B"/>
<path d="M138.115 70.5643L139.265 74.014C139.265 69.4145 143.865 68.0729 146.165 67.6896C151.684 67.6896 154.98 70.1811 155.939 71.7142C153.639 66.1948 148.464 64.8149 146.165 64.8149C141.105 64.8149 138.69 68.6479 138.115 70.5643Z" fill="#210263"/>
<mask id="mask0" mask-type="alpha" maskUnits="userSpaceOnUse" x="139" y="66" width="18" height="14">
<path d="M147.67 66.5398C139.652 66.5398 138.826 72.2347 139.416 75.0822C140.359 79.2876 144.919 79.4629 147.08 79.0248C152.269 77.9734 155.531 74.206 156.514 72.4537C154.155 68.2483 149.635 66.7588 147.67 66.5398Z" fill="#FFFBFB"/>
</mask>
<g mask="url(#mask0)">
<path d="M147.314 67.1147C139.296 67.1147 138.826 72.2347 139.416 75.0822C140.359 79.2876 144.919 79.4629 147.08 79.0248C152.269 77.9734 155.531 74.206 156.514 72.4538C154.155 68.2483 149.039 67.1147 147.314 67.1147Z" fill="#FFFBFB"/>
<circle cx="145.161" cy="75.9437" r="5.89569" fill="url(#paint2_linear)"/>
<circle cx="145.161" cy="75.9437" r="3.53742" fill="#19014D"/>
<circle cx="146.93" cy="74.175" r="1.76871" fill="white"/>
<ellipse cx="143.748" cy="79.1129" rx="1.17914" ry="1.76871" transform="rotate(54.2613 143.748 79.1129)" fill="white" fill-opacity="0.58"/>
</g>
<path d="M125.467 71.1393L124.317 74.5889C124.317 69.9894 119.717 68.6479 117.418 68.2646C111.898 68.2646 108.602 70.756 107.644 72.2892C109.943 66.7697 115.118 65.3899 117.418 65.3899C122.477 65.3899 124.892 69.2228 125.467 71.1393Z" fill="#210263"/>
<mask id="mask1" mask-type="alpha" maskUnits="userSpaceOnUse" x="107" y="67" width="18" height="13">
<path d="M115.912 67.1145C123.93 67.1145 124.756 72.8094 124.166 75.6569C123.223 79.8623 118.664 80.0376 116.502 79.5995C111.314 78.5481 108.051 74.7807 107.069 73.0284C109.427 68.823 113.947 67.3335 115.912 67.1145Z" fill="#FFFBFB"/>
</mask>
<g mask="url(#mask1)">
<path d="M116.268 67.6895C124.286 67.6895 124.756 72.8094 124.166 75.6569C123.223 79.8624 118.663 80.0376 116.502 79.5995C111.314 78.5481 108.051 74.7807 107.069 73.0285C109.427 68.823 114.543 67.6895 116.268 67.6895Z" fill="#FFFBFB"/>
<circle r="5.89569" transform="matrix(-1 0 0 1 118.421 76.5186)" fill="url(#paint3_linear)"/>
<circle r="3.53742" transform="matrix(-1 0 0 1 118.421 76.5185)" fill="#19014D"/>
<circle r="1.76871" transform="matrix(-0.296349 -0.95508 -0.95508 0.296349 120.361 74.8758)" fill="white"/>
<ellipse rx="1.17914" ry="1.76871" transform="matrix(-0.948006 -0.318252 -0.318252 0.948006 116.585 79.3761)" fill="white" fill-opacity="0.58"/>
</g>
<path d="M151.385 56.5908C156.846 60.1104 157.832 63.9234 157.642 65.3899C156.732 64.51 153.47 62.4569 151.953 61.5403C148.768 59.3405 143.42 58.424 141.145 58.2406C138.415 56.9208 139.249 54.0244 140.007 52.7412C144.558 53.1812 149.488 55.4909 151.385 56.5908Z" fill="#20007B"/>
<path d="M125.141 81.9675C127.394 79.7149 129.417 72.6862 130.147 69.4534C129.146 77.4624 127.54 81.5503 126.705 82.5932C126.705 83.5943 128.27 85.096 129.208 85.7217C127.456 85.4714 125.767 83.1146 125.141 81.9675Z" fill="#9D4427" fill-opacity="0.53"/>
<path d="M136.091 82.5931C132.337 84.3451 128.061 83.3231 126.392 82.5931C127.894 85.5965 129.938 86.0345 130.772 86.0345C133.588 86.0345 135.569 83.636 136.091 82.5931Z" fill="#EC6F73"/>
<path d="M126.392 82.5932C128.395 80.591 129.73 73.2076 130.147 69.7663C130.211 69.2657 130.382 69.5577 130.46 69.7663C130.209 73.2702 134.11 79.7775 136.091 82.5932C131.586 84.3452 127.748 83.3232 126.392 82.5932Z" fill="#FAB29B"/>
<path d="M123.23 103.238C119.28 101.442 117.435 94.5335 117.007 91.3038C119.012 92.4297 123.364 92.5871 125.289 92.525C129.392 91.9806 134.319 92.1003 136.269 92.2282C140.554 93.0517 144.134 91.7648 145.388 91.0184C144.625 95.7594 141.038 100.489 139.34 102.26C133.44 106.755 126.142 104.785 123.23 103.238Z" fill="#FF8A7C"/>
<path d="M131.209 102.179C120.601 102.658 117.751 95.4582 117.652 91.7981C123.212 95.2363 130.732 95.6693 133.797 95.456C139.269 94.7301 143.475 92.6255 144.894 91.6639C141.939 100.872 134.54 102.511 131.209 102.179Z" fill="#07049C"/>
<path d="M123.948 96.5355C122.462 95.6633 122.008 94.1731 122.131 93.5147C129.427 96.5999 137.903 94.929 141.421 93.4743C141.641 95.5154 140.4 95.8878 139.626 96.2737C133.017 99.5671 126.403 97.7765 123.948 96.5355Z" fill="white"/>
<path d="M124.002 99.5769C123.225 99.4276 122.906 100.038 122.844 100.362C125.621 102.266 129.537 102.945 130.74 102.786C135.392 102.169 137.067 101.315 138.018 100.558C137.821 99.0691 137.178 98.986 136.882 99.1305C133.54 100.584 126.903 100.034 124.002 99.5769Z" fill="white"/>
<path d="M163.326 64.0198C162.406 68.1594 163.326 75.327 163.901 78.3933C163.901 72.414 167.35 61.3368 169.075 56.5456C171.835 53.7859 172.141 48.1132 171.95 45.6217C168.27 38.7225 160.068 41.5972 156.426 43.8969C157.806 43.8969 160.451 46.9633 161.601 48.4964C163.326 50.2213 163.326 63.4449 163.326 64.0198Z" fill="#026CB8"/>
<path d="M91.9468 62.6685C95.1665 66.3482 97.5046 77.617 98.2712 82.7915C100.571 75.4322 99.2294 64.7766 98.2712 60.3687C96.8913 57.609 98.8461 53.8528 99.996 52.3196C103.676 47.2601 109.578 47.1451 112.07 47.7201C112.53 44.0404 114.561 41.2041 115.519 40.2458C125.638 31.5067 135.451 36.9878 139.092 40.8208C149.211 49.0999 160.556 48.8699 164.964 47.7201C173.243 45.4203 178.763 36.7962 180.488 32.7716C189.687 18.5131 185.087 5.36611 181.638 0.57494C178.878 7.93418 168.989 13.6069 164.389 15.5234C167.609 9.54401 168.031 2.68306 167.839 0C162.779 12.8787 145.416 11.4988 137.367 9.19908C130.468 6.89932 120.694 6.70767 116.669 6.89932C103.331 8.27918 97.3129 18.9731 95.9714 24.1475C94.5915 25.5274 94.6299 21.2728 94.8215 18.9731C92.0618 23.1126 93.6716 29.5136 94.8215 32.1967C90.6819 31.7367 85.8141 33.9215 83.8977 35.0714C75.6185 41.0508 82.7478 52.128 87.3473 56.9191C87.8073 57.3791 90.6053 60.9437 91.9468 62.6685Z" fill="#1F46A3"/>
<path d="M112.141 47.8623C102.482 46.4825 98.5339 53.8034 97.7673 57.6363C96.8474 51.6569 98.5339 48.6289 99.4921 47.8623C104.092 45.1026 109.841 46.7124 112.141 47.8623C110.608 45.1793 108.461 39.1232 112.141 36.3635C114.249 34.0637 121.11 30.8441 131.689 36.3635C126.323 35.022 114.901 35.4436 112.141 47.8623Z" fill="#0B0181"/>
<path d="M116.745 22.8884C105.173 25.1808 106.137 35.3054 108.066 40.0812C107.603 29.9948 119.445 28.2373 125.424 28.6193C130.515 28.6193 140.66 34.7323 144.517 37.2157C148.683 40.8835 155.704 43.3287 158.404 44.0928C165.925 46.2215 173.062 40.8453 176.34 37.7888C174.952 38.7058 167.468 39.6991 164.19 40.0812C154.469 41.4566 144.517 32.631 139.31 29.7655C130.052 22.4299 120.023 22.3153 116.745 22.8884Z" fill="#093EC4" fill-opacity="0.76"/>
<path d="M108.852 34.9602C106.557 41.0262 110.35 46.6255 112.454 48.3753C106.717 39.0431 114.867 34.8923 114.748 34.9602C121.173 31.2273 130.046 35.349 133.679 37.8765C134.597 38.3431 141.36 42.6189 144.993 44.7575C149.582 48.0238 157.582 48.9586 160.642 48.9586C172.115 48.492 178.808 38.2654 180.72 33.2104C178.426 36.0101 174.059 39.1193 172.529 40.0914C165.186 47.0906 157.231 44.3687 153.598 42.4245C152.221 41.9578 145.758 37.9528 142.698 36.0085C135.814 30.8758 128.357 28.6205 125.488 28.4261C115.851 27.4928 110.19 32.4327 108.852 34.9602Z" fill="#30C1FF"/>
<path d="M177.724 22.1369C164.998 36.9448 149.221 31.2266 142.922 26.5165C160.09 26.9548 176.011 9.98561 181.826 1.44622C184.704 10.8483 180.29 19.1575 177.724 22.1369Z" fill="#093EC5"/>
<path d="M179.208 9.25072C171.67 20.716 158.562 26.736 152.951 28.3128C160.566 30.2572 168.15 26.2671 170.99 24.029C176.585 20.1791 178.8 12.5727 179.208 9.25072Z" fill="#35C2FF" fill-opacity="0.44"/>
<path d="M133.193 16.183C125.771 15.1887 119.443 17.4765 117.206 18.7447C109.13 22.8509 103.869 20.5924 102.248 18.9499C102.224 18.4905 102.581 17.9729 102.762 17.7716C105.326 13.9531 109.715 11.2675 111.589 10.4021C118.299 6.59744 131.615 8.0133 137.426 9.05326C146.188 11.4745 154.761 10.2593 158.156 9.12253C163.137 7.48078 166.156 4.29103 167.043 2.90137L165.984 4.68379C165.573 5.62642 163.656 7.87585 162.749 8.88274C156.171 15.2137 148.382 16.7334 145.31 16.7018C143.013 16.8217 136.275 16.4059 133.193 16.183Z" fill="#1C78DE"/>
<path d="M66.1001 161.553C40.3211 164.056 27.2021 166.976 23.865 168.123C14.3543 170.876 12.6023 177.822 12.9152 180.95C14.4169 197.469 28.1407 230.589 34.8149 245.085H232.538C238.545 239.328 250.892 199.93 256.315 180.95C257.065 175.694 252.456 171.669 250.058 170.313C244.551 167.059 228.575 164.369 221.275 163.43C213.016 162.179 170.697 159.78 150.57 158.738C114.53 157.236 79.24 159.989 66.1001 161.553Z" fill="#2F68D8"/>
<path d="M14.4794 179.699C13.9789 184.454 30.1221 225.062 38.2562 244.772L231.286 244.772C233.789 240.767 248.389 202.224 255.376 183.453C256.627 174.693 242.549 170.626 235.353 169.687C214.33 165.182 165.483 163.013 143.688 162.492C97.3854 161.741 53.0646 166.767 36.692 169.375C19.1722 171.877 14.5837 177.3 14.4794 179.699Z" fill="url(#paint4_linear)"/>
<path d="M14.4794 179.699C13.9789 184.454 30.1221 225.062 38.2562 244.772L231.286 244.772C233.789 240.767 248.389 202.224 255.376 183.453C256.627 174.693 242.549 170.626 235.353 169.687C214.33 165.182 165.483 163.013 143.688 162.492C97.3854 161.741 53.0646 166.767 36.692 169.375C19.1722 171.877 14.5837 177.3 14.4794 179.699Z" fill="url(#paint5_radial)"/>
<path d="M13.5409 180.324C16.0437 178.322 24.1779 176.779 27.9321 176.257C34.1891 176.758 41.3848 177.926 44.2004 178.447C50.2072 179.198 47.9547 182.097 46.0776 183.453C39.8205 188.709 28.8707 188.354 24.1779 187.52L22.6136 193.151C23.3645 192.651 24.1779 192.526 24.4907 192.526C28.4952 193.026 39.9248 197.74 45.139 200.034C55.6508 204.789 59.1131 207.438 59.5302 208.168C62.5336 211.172 60.1559 213.174 58.5917 213.8C52.3346 215.802 45.5561 211.714 42.949 209.42L31.9992 207.542C33.5009 208.293 41.3848 213.07 45.139 215.364C46.891 216.115 47.329 216.928 47.329 217.241L49.2061 222.872C50.7703 230.068 49.8318 230.381 49.8318 230.694C49.0809 231.945 44.7219 230.381 42.6362 229.442C42.6362 231.695 40.1334 232.258 38.8819 232.258C35.6283 232.008 31.0606 229.651 29.1835 228.504C28.683 228.003 28.3492 228.295 28.245 228.504C27.2438 229.505 21.3622 235.595 18.5465 238.515C11.2883 243.771 6.34527 242.999 4.78101 241.956C3.5296 240.455 3.42531 237.576 3.5296 236.325C4.28044 232.821 4.05102 231.319 3.84245 231.006C1.84019 228.504 0.505342 225.584 0.0881981 224.437C-0.412366 220.933 1.33961 217.762 2.27817 216.615C0.776474 214.363 0.401051 211.088 0.401051 209.732C0.901615 208.231 3.94671 205.77 5.40669 204.727C4.90613 203.475 4.78099 201.285 4.78099 200.347C7.53409 191.587 11.768 183.349 13.5409 180.324Z" fill="#FFB49B"/>
<path d="M29.1835 183.766C20.1733 183.766 18.3379 180.011 18.5465 178.134C21.0493 177.383 26.2635 176.57 28.5578 176.257C41.0719 177.258 46.4947 178.969 47.6418 179.699C41.3848 183.703 32.7292 184.079 29.1835 183.766Z" fill="#FFCDBA"/>
<path d="M24.1779 187.52C23.1768 187.52 19.3808 186.686 17.608 186.269C14.8549 189.773 9.36952 192.943 6.97098 194.09L4.78101 200.347C4.53073 201.098 5.09387 203.58 5.40672 204.727C10.6626 199.972 19.068 195.028 22.6136 193.151L24.1779 187.52Z" fill="#FF9992"/>
<path d="M13.228 203.163C9.72408 204.915 9.05666 203.058 9.16095 201.911C10.1621 200.409 18.5465 195.446 22.6136 193.151C22.8639 192.901 22.9265 193.047 22.9265 193.151C22.4259 194.403 20.6322 196.801 19.7979 197.844C17.0448 200.597 14.2709 202.537 13.228 203.163Z" fill="#FFCDBA"/>
<path d="M24.8036 199.096C22.3008 201.849 11.4552 209.42 6.34528 212.861C7.3464 212.361 18.8594 207.021 24.4907 204.414C26.2427 204.414 30.2264 206.5 31.9992 207.543L42.6362 209.42C46.891 213.174 52.7518 214.321 55.1503 214.425C61.6576 212.673 56.8188 210.358 53.586 209.42C52.5849 209.42 46.2861 205.665 43.2619 203.788C40.5088 202.537 29.8092 200.138 24.8036 199.096Z" fill="#FF9B91"/>
<path d="M17.2951 210.358C14.7923 211.86 11.6638 211.401 10.4124 210.984C10.9129 210.734 18.1294 207.334 21.6751 205.665V205.978C20.9242 207.981 18.4422 209.732 17.2951 210.358Z" fill="#FFCDBA"/>
<path d="M24.8036 205.978C25.1164 206.5 25.8047 208.043 26.055 210.045C26.5764 208.69 27.0561 205.978 24.8036 205.978Z" fill="#FD9B8F"/>
<path d="M38.882 224.124C36.1289 222.372 30.6435 220.265 28.245 219.431C42.0105 219.431 46.4947 217.554 47.0161 216.615C47.767 218.117 48.789 221.412 49.2061 222.872C49.7067 224.624 50.0404 227.357 50.1446 228.504C50.1446 229.505 49.9361 230.381 49.8318 230.694C48.8307 231.945 44.6176 230.381 42.6362 229.442C42.3859 228.942 40.0291 225.688 38.882 224.124Z" fill="#EA7379"/>
<path d="M26.055 212.235C24.5533 212.736 16.878 221.204 13.228 225.375C13.9789 224.875 21.4665 220.161 25.1164 217.867L28.245 219.431C29.2461 219.431 40.7591 220.682 46.3904 221.308C47.8921 220.808 47.4333 217.971 47.0161 216.615L42.6362 213.8C41.3848 216.302 31.0606 213.8 26.055 212.235Z" fill="#FF9A92"/>
<path d="M25.1164 219.744C25.8464 220.578 27.369 222.872 27.6193 225.375C28.0364 223.707 28.1198 220.244 25.1164 219.744Z" fill="#FF9A91"/>
<path d="M6.97097 244.772C6.47041 244.271 5.30243 242.686 4.78101 241.956C9.28608 244.209 15.6266 240.809 18.2337 238.828C22.2382 243.583 28.0364 244.772 30.4349 244.772H6.97097Z" fill="#FFA18D"/>
<path d="M30.1221 244.772C23.865 244.271 19.5894 240.601 18.2337 238.828C19.4851 237.827 25.4293 231.319 28.245 228.191C28.4952 227.94 30.8521 229.338 31.9992 230.068C33.2506 233.822 36.692 241.435 38.2562 244.772H30.1221Z" fill="#DF6B78"/>
<path d="M7.90954 230.068C10.0995 226.627 15.6057 219.181 20.1108 216.928C16.5651 220.787 9.16095 228.816 7.90954 230.068Z" fill="#FF9B8F"/>
<path d="M255.662 180.637C253.171 178.635 245.074 177.091 241.337 176.57C235.108 177.071 227.946 178.239 225.143 178.76C219.164 179.511 221.406 182.41 223.274 183.766C229.503 189.022 240.403 188.667 245.074 187.833L246.631 193.464C245.884 192.964 245.074 192.838 244.763 192.838C240.776 193.339 229.399 198.053 224.209 200.347C213.745 205.102 210.298 207.751 209.883 208.481C206.893 211.484 209.26 213.487 210.817 214.112C217.046 216.115 223.793 212.027 226.389 209.732L237.288 207.855C235.794 208.606 227.946 213.382 224.209 215.677C222.465 216.427 222.029 217.241 222.029 217.554L220.16 223.185C218.603 230.381 219.537 230.694 219.537 231.006C220.285 232.258 224.624 230.694 226.7 229.755C226.7 232.008 229.191 232.571 230.437 232.571C233.676 232.32 238.223 229.964 240.091 228.816C240.59 228.316 240.922 228.608 241.025 228.816C242.022 229.818 247.877 235.908 250.68 238.828C257.905 244.084 262.825 243.312 264.382 242.269C265.628 240.767 265.732 237.889 265.628 236.638C264.881 233.134 265.109 231.632 265.317 231.319C267.31 228.816 268.638 225.896 269.054 224.749C269.552 221.245 267.808 218.075 266.874 216.928C268.369 214.676 268.742 211.401 268.742 210.045C268.244 208.544 265.213 206.082 263.759 205.04C264.258 203.788 264.382 201.598 264.382 200.66C261.642 191.9 257.427 183.661 255.662 180.637Z" fill="#FFB49B"/>
<path d="M240.091 184.079C249.06 184.079 250.887 180.324 250.68 178.447C248.188 177.696 242.998 176.883 240.714 176.57C228.257 177.571 222.859 179.281 221.717 180.011C227.946 184.016 236.562 184.391 240.091 184.079Z" fill="#FFCDBA"/>
<path d="M245.074 187.833C246.071 187.833 249.849 186.998 251.614 186.581C254.354 190.085 259.815 193.255 262.202 194.403L264.382 200.66C264.631 201.411 264.071 203.892 263.759 205.04C258.527 200.284 250.161 195.341 246.631 193.464L245.074 187.833Z" fill="#FF9992"/>
<path d="M255.974 203.476C259.462 205.228 260.126 203.371 260.022 202.224C259.026 200.722 250.68 195.759 246.631 193.464C246.382 193.214 246.32 193.36 246.32 193.464C246.818 194.716 248.603 197.114 249.434 198.157C252.174 200.91 254.936 202.85 255.974 203.476Z" fill="#FFCDBA"/>
<path d="M244.451 199.408C246.943 202.161 257.739 209.732 262.825 213.174C261.829 212.673 250.368 207.334 244.763 204.727C243.019 204.727 239.053 206.813 237.288 207.855L226.7 209.732C222.465 213.487 216.631 214.634 214.243 214.738C207.765 212.986 212.582 210.671 215.8 209.732C216.797 209.732 223.067 205.978 226.077 204.101C228.818 202.85 239.468 200.451 244.451 199.408Z" fill="#FF9B91"/>
<path d="M251.925 210.671C254.417 212.173 257.531 211.714 258.777 211.297C258.278 211.046 251.095 207.647 247.565 205.978V206.291C248.313 208.293 250.783 210.045 251.925 210.671Z" fill="#FFCDBA"/>
<path d="M244.451 206.291C244.14 206.813 243.455 208.356 243.205 210.358C242.686 209.003 242.209 206.291 244.451 206.291Z" fill="#FD9B8F"/>
<path d="M230.437 224.437C233.178 222.685 238.638 220.578 241.026 219.744C227.323 219.744 222.859 217.867 222.34 216.928C221.593 218.43 220.575 221.725 220.16 223.185C219.662 224.937 219.33 227.669 219.226 228.817C219.226 229.818 219.433 230.694 219.537 231.006C220.534 232.258 224.728 230.694 226.7 229.755C226.949 229.254 229.295 226.001 230.437 224.437Z" fill="#EA7379"/>
<path d="M243.206 212.548C244.7 213.049 252.341 221.517 255.974 225.688C255.226 225.187 247.773 220.474 244.14 218.18L241.026 219.744C240.029 219.744 228.569 220.995 222.963 221.621C221.468 221.12 221.925 218.284 222.34 216.928L226.7 214.112C227.946 216.615 238.223 214.112 243.206 212.548Z" fill="#FF9A92"/>
<path d="M244.14 220.057C243.413 220.891 241.897 223.185 241.648 225.688C241.233 224.019 241.15 220.557 244.14 220.057Z" fill="#FF9A91"/>
<path d="M262.202 245.085C262.701 244.584 263.863 242.999 264.382 242.269C259.898 244.522 253.586 241.122 250.991 239.141C247.005 243.896 241.233 245.085 238.846 245.085H262.202Z" fill="#FFA18D"/>
<path d="M239.157 245.085C245.385 244.584 249.642 240.913 250.991 239.141C249.745 238.139 243.828 231.632 241.025 228.504C240.776 228.253 238.43 229.651 237.288 230.381C236.043 234.135 232.617 241.748 231.06 245.085H239.157Z" fill="#DF6B78"/>
<path d="M261.268 230.381C259.088 226.939 253.607 219.494 249.123 217.241C252.652 221.099 260.022 229.129 261.268 230.381Z" fill="#FF9B8F"/>
<defs>
<linearGradient id="paint0_linear" x1="131.085" y1="142.661" x2="131.085" y2="112.94" gradientUnits="userSpaceOnUse">
<stop stop-color="#FF9999"/>
<stop offset="1" stop-color="#FEAFA0"/>
</linearGradient>
<linearGradient id="paint1_linear" x1="126.392" y1="205.231" x2="140.471" y2="157.365" gradientUnits="userSpaceOnUse">
<stop stop-color="#194688"/>
<stop offset="1" stop-color="#1850A3"/>
</linearGradient>
<linearGradient id="paint2_linear" x1="141.624" y1="80.6602" x2="149.288" y2="71.2271" gradientUnits="userSpaceOnUse">
<stop stop-color="#00B2FF"/>
<stop offset="1" stop-color="#3430FA"/>
</linearGradient>
<linearGradient id="paint3_linear" x1="2.35828" y1="10.6122" x2="10.0227" y2="1.17914" gradientUnits="userSpaceOnUse">
<stop stop-color="#00B2FF"/>
<stop offset="1" stop-color="#3430FA"/>
</linearGradient>
<linearGradient id="paint4_linear" x1="194.683" y1="170.313" x2="110.525" y2="242.269" gradientUnits="userSpaceOnUse">
<stop stop-color="#39329E"/>
<stop offset="1" stop-color="#2C1C75"/>
</linearGradient>
<radialGradient id="paint5_radial" cx="0" cy="0" r="1" gradientUnits="userSpaceOnUse" gradientTransform="translate(195.621 127.765) rotate(109.43) scale(102.51 299.96)">
<stop stop-color="#5638E0"/>
<stop offset="1" stop-color="#401CE7" stop-opacity="0"/>
</radialGradient>
</defs>
</svg>
