<svg width="1651" height="501" viewBox="0 0 1651 501" fill="none" xmlns="http://www.w3.org/2000/svg">
<rect width="501" height="501" rx="20" fill="#00A3FF"/>
<rect x="18" y="18" width="466" height="466" rx="20" fill="#1A4157"/>
<path d="M266.167 296.946L239.386 351.454C237.402 355.602 233.976 357.451 229.106 357L222.749 356.459C219.503 356.369 217.384 355.151 216.392 352.807C215.4 350.463 215.581 348.163 216.933 345.909L309.179 168.046C313.056 160.652 318.151 156.955 324.463 156.955L335.554 156.684C338.89 156.684 341.505 157.812 343.399 160.066C345.292 162.32 346.104 165.656 345.833 170.075L336.095 350.913C335.914 354.971 333.164 357 327.844 357L318.376 356.729C313.867 356.729 311.748 354.25 312.019 349.29L315.536 296.946H266.167ZM276.041 276.928H316.888L323.245 180.625L276.041 276.928Z" fill="#00D1FF"/>
<path d="M234.833 204.054L261.614 149.546C263.598 145.398 267.024 143.549 271.894 144L278.251 144.541C281.497 144.631 283.616 145.849 284.608 148.193C285.6 150.537 285.419 152.837 284.067 155.091L191.821 332.954C187.944 340.348 182.849 344.045 176.537 344.045L165.446 344.316C162.11 344.316 159.495 343.188 157.601 340.934C155.708 338.68 154.896 335.344 155.167 330.925L164.905 150.087C165.086 146.029 167.836 144 173.156 144L182.624 144.271C187.133 144.271 189.252 146.75 188.981 151.71L185.464 204.054H234.833ZM224.959 224.072H184.112L177.755 320.375L224.959 224.072Z" fill="#00D1FF"/>
<path d="M687.688 327.056C688.264 329.36 688.552 331.184 688.552 332.528C688.552 334.256 688.168 335.6 687.4 336.56C686.632 337.328 685.288 338.096 683.368 338.864C679.912 340.208 677.416 340.88 675.88 340.88C673.768 340.88 672.424 339.536 671.848 336.848L659.464 263.408L605.896 268.88L578.536 331.664C577.192 334.544 575.848 336.56 574.504 337.712C573.16 338.672 571.528 339.152 569.608 339.152C565.96 339.152 563.368 338.864 561.832 338.288C560.104 337.712 559.24 336.656 559.24 335.12C559.24 333.968 559.528 332.72 560.104 331.376L637.576 155.12C638.92 152.048 639.976 150.032 640.744 149.072C641.704 147.92 643.144 146.96 645.064 146.192C649.096 144.848 651.688 144.176 652.84 144.176C654.76 144.176 655.816 145.328 656.008 147.632L673.288 245.84L674.728 245.552C676.264 245.36 678.184 245.264 680.488 245.264C682.6 245.264 684.136 245.744 685.096 246.704C686.056 247.472 686.824 249.296 687.4 252.176C687.784 254.48 687.976 255.92 687.976 256.496C687.976 258.032 687.112 259.184 685.384 259.952C683.848 260.72 680.776 261.392 676.168 261.968L687.688 327.056ZM648.808 200.624L646.216 176.432L613.384 251.6L656.584 247.28L648.808 200.624ZM735.343 144.176C730.543 179.12 725.839 217.424 721.231 259.088C716.623 300.56 714.319 324.848 714.319 331.952C714.319 335.024 714.607 337.136 715.183 338.288C715.951 339.44 717.391 340.016 719.503 340.016C720.079 340.016 721.711 339.824 724.399 339.44C727.279 338.672 729.103 338 729.871 337.424C730.831 336.848 731.407 335.216 731.599 332.528C732.367 316.592 733.231 303.344 734.191 292.784C735.919 274.352 737.935 254.672 740.239 233.744C742.735 212.624 746.863 181.136 752.623 139.28C753.007 137.168 752.911 135.632 752.335 134.672C751.759 133.712 750.703 133.232 749.167 133.232C747.247 133.232 744.847 133.616 741.967 134.384C739.663 134.96 738.031 135.824 737.071 136.976C736.303 138.128 735.727 140.528 735.343 144.176ZM852.798 134.384C855.87 133.616 858.462 133.232 860.574 133.232C862.302 133.232 863.454 133.712 864.03 134.672C864.606 135.44 864.798 136.976 864.606 139.28C858.078 184.592 853.374 218.096 850.494 239.792C847.614 261.296 845.598 278.96 844.446 292.784C842.91 310.256 842.142 323.504 842.142 332.528C842.142 335.216 841.662 336.848 840.702 337.424C839.934 338 838.11 338.672 835.23 339.44C832.926 339.824 831.486 340.016 830.91 340.016C828.606 340.016 827.07 339.248 826.302 337.712C825.534 336.176 825.246 333.392 825.438 329.36C825.438 325.904 825.726 321.488 826.302 316.112C822.654 323.792 817.854 329.84 811.902 334.256C806.142 338.672 799.518 340.88 792.03 340.88C782.814 340.688 775.422 336.176 769.854 327.344C764.478 318.512 761.79 306.32 761.79 290.768C761.982 276.368 764.094 262.928 768.126 250.448C772.158 237.776 778.014 227.696 785.694 220.208C793.566 212.528 802.974 208.688 813.918 208.688C821.79 208.688 829.566 211.088 837.246 215.888C840.702 189.392 843.678 165.488 846.174 144.176C846.558 140.528 847.134 138.128 847.902 136.976C848.862 135.824 850.494 134.96 852.798 134.384ZM835.23 231.728C831.582 229.424 828.222 227.792 825.15 226.832C822.27 225.68 819.006 225.104 815.358 225.104C806.526 225.104 799.422 228.848 794.046 236.336C788.67 243.824 784.83 252.56 782.526 262.544C780.414 272.528 779.262 281.744 779.07 290.192C779.07 312.656 785.118 323.888 797.214 323.888C805.086 323.888 812.19 318.416 818.526 307.472C824.862 296.528 828.894 283.472 830.622 268.304L835.23 231.728ZM923.927 208.112C933.911 208.304 941.783 212.72 947.543 221.36C953.495 229.808 956.567 240.176 956.759 252.464C956.759 268.784 954.743 283.664 950.711 297.104C946.679 310.352 940.631 321.008 932.567 329.072C924.503 336.944 914.615 340.88 902.903 340.88C892.919 340.688 884.951 336.368 878.999 327.92C873.239 319.28 870.263 308.816 870.071 296.528C870.071 280.208 872.087 265.424 876.119 252.176C880.151 238.736 886.199 228.08 894.263 220.208C902.327 212.144 912.215 208.112 923.927 208.112ZM904.343 324.464C912.983 324.464 919.895 320.528 925.079 312.656C930.455 304.784 934.199 295.664 936.311 285.296C938.615 274.736 939.767 265.136 939.767 256.496C939.767 246.896 938.327 239.312 935.447 233.744C932.567 227.984 928.247 225.104 922.487 225.104C913.847 225.104 906.839 229.04 901.463 236.912C896.279 244.592 892.535 253.616 890.231 263.984C888.119 274.352 887.063 283.856 887.063 292.496C887.063 302.096 888.503 309.872 891.383 315.824C894.263 321.584 898.583 324.464 904.343 324.464ZM1089.69 144.176C1104.48 144.176 1117.63 148.4 1129.15 156.848C1131.26 158.384 1132.32 160.016 1132.32 161.744C1132.32 163.28 1131.36 165.392 1129.44 168.08C1127.13 171.152 1125.12 172.688 1123.39 172.688C1122.24 172.688 1120.8 172.112 1119.07 170.96C1113.69 167.696 1108.7 165.296 1104.09 163.76C1099.68 162.224 1094.49 161.456 1088.54 161.456C1079.52 161.648 1072.22 164.144 1066.65 168.944C1061.28 173.744 1058.59 180.656 1058.59 189.68C1058.59 196.976 1060.7 203.312 1064.92 208.688C1069.34 213.872 1076.06 220.208 1085.08 227.696L1091.71 233.168C1103.04 242.576 1112.06 251.792 1118.78 260.816C1125.69 269.84 1129.15 280.304 1129.15 292.208C1129.15 306.992 1124.44 318.8 1115.04 327.632C1105.82 336.464 1093.63 340.88 1078.46 340.88C1067.52 340.88 1057.53 338.48 1048.51 333.68C1039.68 328.88 1031.04 321.872 1022.59 312.656C1021.43 311.12 1020.86 309.776 1020.86 308.624C1020.86 306.896 1022.4 304.592 1025.47 301.712C1027.96 299.216 1029.98 297.968 1031.52 297.968C1032.86 297.968 1034.2 298.64 1035.55 299.984C1043.23 308.048 1050.24 313.904 1056.57 317.552C1063.1 321.2 1070.3 323.024 1078.17 323.024C1087.96 323.024 1095.93 320.432 1102.08 315.248C1108.22 310.064 1111.29 302.48 1111.29 292.496C1111.29 286.16 1109.76 280.304 1106.68 274.928C1103.8 269.552 1100.44 265.04 1096.6 261.392C1092.96 257.552 1087.77 252.848 1081.05 247.28L1074.72 242.096C1067.23 235.76 1061.18 230.384 1056.57 225.968C1052.16 221.552 1048.41 216.272 1045.34 210.128C1042.27 203.792 1040.73 196.688 1040.73 188.816C1040.73 174.992 1045.34 164.144 1054.56 156.272C1063.96 148.208 1075.68 144.176 1089.69 144.176ZM1161.72 339.44C1164.6 338.672 1166.42 338 1167.19 337.424C1168.15 336.848 1168.72 335.216 1168.92 332.528C1169.68 316.592 1170.55 303.344 1171.51 292.784C1173.62 268.208 1176.88 241.808 1181.3 213.584C1181.68 211.472 1181.59 209.936 1181.01 208.976C1180.44 208.016 1179.38 207.536 1177.84 207.536C1175.92 207.536 1173.52 207.92 1170.64 208.688C1168.34 209.264 1166.71 210.128 1165.75 211.28C1164.98 212.432 1164.4 214.832 1164.02 218.48C1155.76 281.072 1151.64 318.896 1151.64 331.952C1151.64 335.024 1151.92 337.136 1152.5 338.288C1153.27 339.44 1154.71 340.016 1156.82 340.016C1157.4 340.016 1159.03 339.824 1161.72 339.44ZM1180.15 161.456C1182.84 161.456 1184.95 162.32 1186.48 164.048C1188.02 165.776 1188.79 168.176 1188.79 171.248C1188.79 176.816 1187.44 181.424 1184.76 185.072C1182.07 188.72 1178.71 190.544 1174.68 190.544C1171.99 190.544 1169.88 189.68 1168.34 187.952C1166.8 186.032 1166.04 183.44 1166.04 180.176C1166.04 174.8 1167.38 170.384 1170.07 166.928C1172.76 163.28 1176.12 161.456 1180.15 161.456ZM1278.1 206.96C1282.71 206.192 1285.2 205.808 1285.59 205.808C1287.51 205.808 1288.76 206.288 1289.33 207.248C1289.91 208.208 1290 209.84 1289.62 212.144C1289.62 212.912 1289.14 216.464 1288.18 222.8C1284.72 245.456 1281.84 268.688 1279.54 292.496C1277.62 318.8 1275.03 339.056 1271.76 353.264C1268.69 367.472 1263.8 378.032 1257.08 384.944C1250.36 392.048 1240.76 395.6 1228.28 395.6C1221.75 395.408 1215.6 394.064 1209.84 391.568C1204.28 389.264 1198.52 385.712 1192.56 380.912C1190.07 378.992 1188.82 377.168 1188.82 375.44C1188.82 373.712 1189.97 371.408 1192.28 368.528C1194.39 365.84 1196.21 364.496 1197.75 364.496C1198.9 364.496 1200.53 365.36 1202.64 367.088C1207.64 371.504 1211.96 374.576 1215.6 376.304C1219.44 378.032 1224.24 378.896 1230 378.896C1237.11 378.896 1242.68 376.88 1246.71 372.848C1250.74 369.008 1253.81 362.96 1255.92 354.704C1258.04 346.448 1259.86 334.736 1261.4 319.568C1256.4 326.672 1251.32 331.952 1246.13 335.408C1240.95 338.864 1234.71 340.592 1227.41 340.592C1218.2 340.4 1210.8 335.984 1205.24 327.344C1199.67 318.512 1196.88 306.32 1196.88 290.768C1197.08 276.368 1199.19 262.928 1203.22 250.448C1207.25 237.776 1213.11 227.696 1220.79 220.208C1228.66 212.528 1238.07 208.688 1249.01 208.688C1256.5 208.688 1263.89 211.568 1271.19 217.328V216.752C1271.57 212.912 1272.15 210.512 1272.92 209.552C1273.88 208.4 1275.6 207.536 1278.1 206.96ZM1232.31 323.888C1239.99 323.696 1246.71 318.512 1252.47 308.336C1258.42 298.16 1262.45 285.008 1264.56 268.88C1267.25 249.872 1268.79 237.968 1269.17 233.168C1266.29 230.48 1263.32 228.464 1260.24 227.12C1257.36 225.776 1254.1 225.104 1250.45 225.104C1241.62 225.104 1234.52 228.848 1229.14 236.336C1223.76 243.824 1219.92 252.56 1217.62 262.544C1215.51 272.528 1214.36 281.744 1214.16 290.192C1214.16 312.656 1220.21 323.888 1232.31 323.888ZM1306.3 334.256C1309.95 307.184 1312.83 284.24 1314.94 265.424C1317.06 246.608 1318.11 230.864 1318.11 218.192C1318.11 214.352 1318.5 211.952 1319.26 210.992C1320.22 209.84 1322.14 208.976 1325.02 208.4C1329.63 207.632 1332.13 207.248 1332.51 207.248C1334.24 207.248 1335.39 207.728 1335.97 208.688C1336.54 209.456 1336.74 211.088 1336.54 213.584L1335.39 229.712C1345.38 215.312 1356.99 208.112 1370.24 208.112C1377.73 208.112 1383.97 210.704 1388.96 215.888C1394.14 221.072 1396.74 229.232 1396.74 240.368C1396.74 249.2 1396.26 257.936 1395.3 266.576C1394.53 275.216 1393.18 287.504 1391.26 303.44L1388.1 329.36C1387.71 333.008 1386.94 335.408 1385.79 336.56C1384.83 337.52 1383.1 338.384 1380.61 339.152C1376.77 339.92 1374.46 340.304 1373.7 340.304C1371.97 340.304 1370.82 339.824 1370.24 338.864C1369.66 337.904 1369.57 336.272 1369.95 333.968L1370.82 327.056C1376.38 285.584 1379.17 258.608 1379.17 246.128C1379.17 238.64 1378.11 233.264 1376 230C1374.08 226.544 1370.82 224.816 1366.21 224.816C1361.22 224.816 1356.13 227.408 1350.94 232.592C1345.76 237.584 1341.25 244.208 1337.41 252.464C1333.57 260.72 1331.07 269.264 1329.92 278.096L1323.58 329.36C1323.01 333.2 1322.24 335.696 1321.28 336.848C1320.51 337.808 1318.88 338.576 1316.38 339.152C1312.54 339.92 1310.24 340.304 1309.47 340.304C1307.94 340.304 1306.88 339.824 1306.3 338.864C1305.92 338.096 1305.92 336.56 1306.3 334.256ZM1486.84 339.44C1489.72 338.672 1491.54 338 1492.31 337.424C1493.27 336.848 1493.85 335.216 1494.04 332.528C1494.81 316.592 1495.67 303.344 1496.63 292.784C1498.74 268.208 1502.01 241.808 1506.42 213.584C1506.81 211.472 1506.71 209.936 1506.14 208.976C1505.56 208.016 1504.5 207.536 1502.97 207.536C1501.05 207.536 1498.65 207.92 1495.77 208.688C1493.46 209.264 1491.83 210.128 1490.87 211.28C1490.1 212.432 1489.53 214.832 1489.14 218.48C1480.89 281.072 1476.76 318.896 1476.76 331.952C1476.76 335.024 1477.05 337.136 1477.62 338.288C1478.39 339.44 1479.83 340.016 1481.94 340.016C1482.52 340.016 1484.15 339.824 1486.84 339.44ZM1505.27 161.456C1507.96 161.456 1510.07 162.32 1511.61 164.048C1513.14 165.776 1513.91 168.176 1513.91 171.248C1513.91 176.816 1512.57 181.424 1509.88 185.072C1507.19 188.72 1503.83 190.544 1499.8 190.544C1497.11 190.544 1495 189.68 1493.46 187.952C1491.93 186.032 1491.16 183.44 1491.16 180.176C1491.16 174.8 1492.5 170.384 1495.19 166.928C1497.88 163.28 1501.24 161.456 1505.27 161.456ZM1522.58 334.256C1526.23 307.184 1529.11 284.24 1531.22 265.424C1533.34 246.608 1534.39 230.864 1534.39 218.192C1534.39 214.352 1534.78 211.952 1535.54 210.992C1536.5 209.84 1538.42 208.976 1541.3 208.4C1545.91 207.632 1548.41 207.248 1548.79 207.248C1550.52 207.248 1551.67 207.728 1552.25 208.688C1552.82 209.456 1553.02 211.088 1552.82 213.584L1551.67 229.712C1561.66 215.312 1573.27 208.112 1586.52 208.112C1594.01 208.112 1600.25 210.704 1605.24 215.888C1610.42 221.072 1613.02 229.232 1613.02 240.368C1613.02 249.2 1612.54 257.936 1611.58 266.576C1610.81 275.216 1609.46 287.504 1607.54 303.44L1604.38 329.36C1603.99 333.008 1603.22 335.408 1602.07 336.56C1601.11 337.52 1599.38 338.384 1596.89 339.152C1593.05 339.92 1590.74 340.304 1589.98 340.304C1588.25 340.304 1587.1 339.824 1586.52 338.864C1585.94 337.904 1585.85 336.272 1586.23 333.968L1587.1 327.056C1592.66 285.584 1595.45 258.608 1595.45 246.128C1595.45 238.64 1594.39 233.264 1592.28 230C1590.36 226.544 1587.1 224.816 1582.49 224.816C1577.5 224.816 1572.41 227.408 1567.22 232.592C1562.04 237.584 1557.53 244.208 1553.69 252.464C1549.85 260.72 1547.35 269.264 1546.2 278.096L1539.86 329.36C1539.29 333.2 1538.52 335.696 1537.56 336.848C1536.79 337.808 1535.16 338.576 1532.66 339.152C1528.82 339.92 1526.52 340.304 1525.75 340.304C1524.22 340.304 1523.16 339.824 1522.58 338.864C1522.2 338.096 1522.2 336.56 1522.58 334.256Z" fill="#1A4157"/>
</svg>
