<svg width="311" height="499" viewBox="0 0 311 499" fill="none" xmlns="http://www.w3.org/2000/svg">
<path d="M103.001 460.146L103.687 449.853C106.981 451.5 115.581 450.082 119.47 449.167C117.411 453.971 118.097 459.46 118.097 460.146C113.157 466.185 105.975 462.662 103.001 460.146Z" fill="#EF9E67"/>
<path d="M99.5704 480.732C95.1788 478.536 99.5704 466.093 102.315 460.146C110.549 466.734 116.267 462.891 118.097 460.146C120.842 460.146 132.507 464.721 137.996 467.008C150.622 473.046 152.406 479.13 151.72 481.418L99.5704 480.732Z" fill="#0975B1" stroke="black" stroke-width="0.4"/>
<path d="M17.2288 438.188L15.1702 450.54C18.4639 460.421 26.6066 456.944 30.2662 453.971C30.2662 452.873 31.6386 446.651 32.3247 443.678C25.1885 443.129 19.2873 439.79 17.2288 438.188Z" fill="#EF9E67"/>
<path d="M2.13284 495.141C-1.16083 491.299 3.5052 472.955 6.24992 464.263L14.4841 450.54C19.4246 458.225 27.0641 456.029 30.2662 453.971C31.3641 459.46 28.8939 473.184 27.5215 479.359C19.9735 503.376 6.24992 499.945 2.13284 495.141Z" fill="#0975B1" stroke="black" stroke-width="0.4"/>
<path d="M37.128 381.922C37.128 386.862 23.4044 421.034 16.5426 437.502C22.581 444.09 30.9524 444.364 34.3833 443.678C34.3833 437.639 58.6283 388.555 70.7508 364.767C80.6318 343.358 101.4 309.644 110.549 295.463C107.805 302.05 104.831 355.847 103.687 381.922C102.59 391.803 101.858 430.412 101.629 448.481C106.021 452.873 116.725 450.311 121.528 448.481C120.43 433.66 127.475 397.932 131.135 381.922C132.233 363.806 146.688 282.425 153.779 243.999L157.21 236.451C139.094 241.392 108.948 237.138 96.1395 234.393L92.7086 237.824C90.5128 240.568 80.3574 263.67 75.5541 274.878C73.9073 280.916 59.3145 321.309 52.224 340.751C48.3814 350.632 40.5589 372.315 37.128 381.922Z" fill="url(#paint0_linear)"/>
<path d="M239.551 117.056C242.296 106.626 232.918 92.5823 227.886 86.8642C252.04 76.4343 264.94 51.869 268.371 40.89C275.507 35.4006 293.759 29.9112 301.994 27.8527C310.228 24.559 311.371 28.7676 310.914 31.2836C308.169 33.4793 300.164 36.3156 296.504 37.4592C297.602 45.6934 294.674 50.9541 293.073 52.5552C285.937 60.7893 275.004 61.933 270.429 61.4755C268.782 82.3354 249.158 107.221 239.551 117.056Z" fill="url(#paint1_linear)"/>
<path d="M58.3996 101.274C66.0848 92.4908 89.9639 88.0078 100.943 86.8641C122.352 101.686 130.449 91.2099 131.821 84.1194H163.385C197.42 96.7451 220.567 91.2099 227.886 86.8641C237.767 97.2941 240.237 110.423 240.237 115.684C220.338 139.7 167.575 130.299 167.502 130.093C170.247 137.779 170.476 148.392 170.247 152.737C171.894 174.695 162.699 218.153 157.896 237.138C136.487 244.274 107.805 238.281 96.1395 234.393C96.6885 232.746 97.2831 216.323 97.5119 208.318C94.7671 161.658 87.2192 145.876 83.7883 143.817C78.8478 147.66 76.2403 160.514 75.5541 166.461C72.8094 176.342 78.5275 187.504 81.7297 191.85L68.6923 209.69C50.5771 197.614 43.7611 180.871 42.6175 174.009C33.8343 144.366 49.4793 113.168 58.3996 101.274Z" fill="#71EEEE"/>
<path d="M142.114 49.1242C142.663 37.0474 137.768 27.6239 135.252 24.4217C134.154 22.8029 125.645 22.3749 121.528 22.3632C111.647 24.01 111.464 38.6028 112.608 45.6933C113.706 59.9659 124.959 71.7682 130.449 75.8852C132.736 75.4278 137.448 74.5129 137.997 74.5129C146.231 72.866 144.172 56.9009 142.114 49.1242Z" fill="#FDB08A"/>
<path d="M135.252 0.405369C151.72 13.0311 143.486 21.677 137.31 24.4217H124.273C117.686 24.4217 115.124 29.9111 114.666 32.6559C120.705 56.8094 126.331 59.6456 128.39 58.0445C138.82 47.6146 143.715 49.1242 144.858 51.1827C149.25 63.2595 148.061 71.3107 146.917 73.8267C145.27 78.7672 129.305 77.2576 121.528 75.8852L109.177 45.6933C106.981 41.3018 101.4 43.8635 98.8843 45.6933C90.6501 44.5954 95.4534 35.1719 98.8843 30.5973C94.4927 24.559 97.0545 18.4748 98.8843 16.1876C105.472 11.796 110.321 14.3577 111.922 16.1876C111.922 12.3449 117.411 11.3843 120.156 11.3843C120.705 -0.143575 130.449 -0.738265 135.252 0.405369Z" fill="black"/>
<path d="M107.805 44.3209C100.119 41.0272 99.113 46.6081 99.5704 49.8103C100.119 53.1039 103.916 57.587 105.746 59.4169C106.844 63.2595 103.916 79.3161 102.315 86.8641C101.629 92.3536 115.353 96.4706 116.039 96.4706C129.762 96.4706 131.821 89.1514 131.135 85.4918V75.8852H129.076C124.685 76.4342 113.065 55.071 107.805 44.3209Z" fill="#FFAA63"/>
<path d="M108.491 228.903C98.6098 227.806 78.2988 215.18 69.3785 209.004C72.1232 194.183 78.2988 191.85 81.0435 192.536C96.414 214.494 110.321 220.44 115.353 220.669C117.548 224.512 137.768 225.472 147.603 225.472L145.544 227.531C122.901 241.255 107.805 228.811 108.491 228.903Z" fill="#FB7A65"/>
<path d="M199.067 150.679L166.816 217.925H112.608C109.314 219.022 113.98 222.042 116.725 223.414C122.763 225.61 152.178 225.701 166.13 225.473H260.137L262.881 224.1L289.642 158.913C294.583 149.032 290.786 145.647 288.27 145.189H207.301C201.811 145.189 199.524 148.849 199.067 150.679Z" fill="url(#paint2_linear)"/>
<path d="M236.238 189.462L234.632 192.732C234.512 192.981 234.307 193.092 234.015 193.065L233.633 193.033C233.439 193.027 233.311 192.954 233.252 192.814C233.192 192.673 233.203 192.535 233.284 192.4L238.819 181.728C239.052 181.284 239.357 181.063 239.736 181.063L240.402 181.046C240.602 181.046 240.759 181.114 240.872 181.249C240.986 181.384 241.035 181.585 241.018 181.85L240.434 192.7C240.423 192.944 240.258 193.065 239.939 193.065L239.371 193.049C239.1 193.049 238.973 192.9 238.989 192.603L239.2 189.462H236.238ZM236.831 188.261H239.282L239.663 182.483L236.831 188.261Z" fill="white"/>
<path d="M234.423 183.603L236.029 180.333C236.148 180.084 236.354 179.973 236.646 180L237.028 180.032C237.222 180.038 237.35 180.111 237.409 180.252C237.469 180.392 237.458 180.53 237.377 180.665L231.842 191.337C231.609 191.781 231.304 192.003 230.925 192.003L230.259 192.019C230.059 192.019 229.902 191.951 229.789 191.816C229.675 191.681 229.626 191.481 229.643 191.216L230.227 180.365C230.238 180.122 230.403 180 230.722 180L231.29 180.016C231.561 180.016 231.688 180.165 231.671 180.463L231.46 183.603H234.423ZM233.83 184.804H231.379L230.998 190.583L233.83 184.804Z" fill="white"/>
<defs>
<linearGradient id="paint0_linear" x1="124.273" y1="248.803" x2="31.6386" y2="437.502" gradientUnits="userSpaceOnUse">
<stop stop-color="#14A3F3"/>
<stop offset="1" stop-color="#043987" stop-opacity="0.96"/>
</linearGradient>
<linearGradient id="paint1_linear" x1="236.806" y1="96.4706" x2="284.839" y2="44.3209" gradientUnits="userSpaceOnUse">
<stop stop-color="#F89D6E"/>
<stop offset="1" stop-color="#DCBEA3"/>
</linearGradient>
<linearGradient id="paint2_linear" x1="135.938" y1="220.669" x2="232.689" y2="215.18" gradientUnits="userSpaceOnUse">
<stop offset="0.206117" stop-color="#024D78"/>
<stop offset="0.456324" stop-color="#0072B4"/>
<stop offset="1" stop-color="#008BDA"/>
</linearGradient>
</defs>
</svg>
