<svg width="783" height="653" viewBox="0 0 783 653" fill="none" xmlns="http://www.w3.org/2000/svg">
<path d="M65.6412 400.496C81.5542 479.998 28.5108 570.291 0 605.5L551.983 623C587.389 623 626.741 595.083 641.991 581.124C747.812 541.624 752.719 431.747 741.944 381.746C726.429 343.746 748.409 255.494 761.338 216.118C781.628 133.117 756.863 93.1998 741.944 83.6163C733.59 74.6162 715.589 84.4497 707.632 90.4914C657.407 134.867 551.983 46.1156 551.983 32.9904C485.944 -32.5106 393.516 14.4485 355.557 46.1156C298.27 86.1163 225.932 62.7826 196.924 46.1156C151.969 46.1156 100.948 81.9495 81.0569 99.8665C-5.66901 174.868 34.644 331.537 65.6412 400.496Z" fill="#DCE7FF" fill-opacity="0.47"/>
<path d="M101.989 581.037C104.789 596.237 75.8226 606.704 60.9892 610.037C55.3892 611.503 53.9892 619.648 53.9892 623.537C52.3892 628.337 57.9892 644.537 60.9892 652.037H272.989C278.589 650.437 294.656 635.37 301.989 628.037C317.989 607.237 304.323 595.37 295.489 592.037C282.289 594.037 270.323 579.537 265.989 572.037C262.389 550.437 299.823 519.037 318.989 506.037C333.789 485.237 332.156 467.704 329.489 461.537C320.289 449.137 304.989 461.37 298.489 469.037C285.289 482.637 274.323 476.704 270.489 472.037C258.889 452.437 281.323 406.87 293.989 386.537C299.189 378.137 296.156 367.37 293.989 363.037C283.989 354.637 269.156 362.87 262.989 368.037C243.389 369.637 271.156 299.37 287.489 264.037C298.289 241.637 294.656 219.37 291.489 211.037C247.489 156.637 198.489 188.37 179.489 211.037C151.089 243.837 162.656 308.37 171.989 336.537C182.389 364.537 171.989 386.87 165.489 394.537C151.889 411.337 155.489 427.537 158.989 433.537C167.389 481.537 151.823 488.537 142.989 486.037C122.989 468.037 136.989 422.537 146.489 402.037C158.889 367.237 145.323 340.87 136.989 332.037C111.789 313.637 88.4892 327.37 79.9892 336.537C51.1892 388.537 67.9892 437.204 79.9892 455.037C87.9892 465.437 88.9892 482.037 88.4892 489.037C88.4892 495.837 76.8226 491.87 70.9892 489.037C60.1892 485.837 52.4892 492.037 49.9892 495.537C36.7892 520.737 59.4892 539.037 72.4892 545.037C93.2892 559.837 100.823 575.204 101.989 581.037Z" fill="#CBD5F9"/>
<path d="M217.066 534C213.232 510.167 207.866 454.6 217.066 423C215.732 380.667 217.766 290.2 236.566 267" stroke="#FFFAFA" stroke-width="4"/>
<path d="M143.066 553.5C125.566 514.667 94.8657 426.7 112.066 385.5" stroke="#FFF9F9" stroke-width="3"/>
<path d="M737.07 578.037C734.773 593.237 758.536 603.704 770.704 607.037C775.298 608.503 776.446 616.648 776.446 620.537C777.759 625.337 773.165 641.537 770.704 649.037H596.793C592.199 647.437 579.019 632.37 573.003 625.037C559.878 604.237 571.089 592.37 578.335 589.037C589.164 591.037 598.981 576.537 602.535 569.037C605.489 547.437 574.781 516.037 559.058 503.037C546.917 482.237 548.257 464.704 550.444 458.537C557.991 446.137 570.542 458.37 575.874 466.037C586.703 479.637 595.699 473.704 598.844 469.037C608.36 449.437 589.957 403.87 579.566 383.537C575.3 375.137 577.789 364.37 579.566 360.037C587.769 351.637 599.938 359.87 604.996 365.037C621.075 366.637 598.297 296.37 584.898 261.037C576.038 238.637 579.019 216.37 581.617 208.037C617.711 153.637 657.908 185.37 673.494 208.037C696.792 240.837 687.303 305.37 679.647 333.537C671.115 361.537 679.647 383.87 684.979 391.537C696.135 408.337 693.182 424.537 690.311 430.537C683.42 478.537 696.19 485.537 703.436 483.037C719.843 465.037 708.358 419.537 700.565 399.037C690.393 364.237 701.522 337.87 708.358 329.037C729.031 310.637 748.145 324.37 755.117 333.537C778.743 385.537 764.961 434.204 755.117 452.037C748.555 462.437 747.734 479.037 748.145 486.037C748.145 492.837 757.715 488.87 762.5 486.037C771.36 482.837 777.677 489.037 779.727 492.537C790.556 517.737 771.934 536.037 761.27 542.037C744.207 556.837 738.027 572.204 737.07 578.037Z" fill="#CBD5F9"/>
<path d="M648.465 521C651.61 497.167 656.012 441.6 648.465 410C649.559 367.667 647.891 277.2 632.469 254" stroke="#FFFAFA" stroke-width="4"/>
<path d="M709.17 540.5C723.526 501.667 748.71 413.7 734.6 372.5" stroke="#FFF9F9" stroke-width="3"/>
<rect x="124.885" y="286" width="555.894" height="336.886" rx="20" fill="#180E89"/>
<rect x="147.78" y="306.566" width="510.103" height="309.465" rx="20" fill="#21AFFF"/>
<rect x="155.106" y="320.276" width="316.869" height="134.167" rx="10" fill="#96D6FA" fill-opacity="0.47"/>
<rect x="165.18" y="505.368" width="454.239" height="90.0975" rx="10" fill="#96D6FA" fill-opacity="0.47"/>
<rect x="190" y="467" width="413" height="18" rx="9" fill="#96D6FA" fill-opacity="0.47"/>
<path d="M486.628 359.656C486.628 354.133 491.105 349.656 496.628 349.656H609.419C614.942 349.656 619.419 354.133 619.419 359.656V372.953C619.419 378.476 614.942 382.953 609.419 382.953H496.628C491.105 382.953 486.628 378.476 486.628 372.953V359.656Z" fill="#96D6FA" fill-opacity="0.47"/>
<path d="M486.628 335.456C486.628 331.399 489.916 328.111 493.973 328.111H612.074C616.131 328.111 619.419 331.399 619.419 335.456V335.456C619.419 339.512 616.131 342.801 612.075 342.801H493.973C489.916 342.801 486.628 339.512 486.628 335.456V335.456Z" fill="#96D6FA" fill-opacity="0.47"/>
<path d="M624.914 315.38H525.092" stroke="white" stroke-width="3"/>
<rect x="486.628" y="389.808" width="132.792" height="41.1315" rx="10" fill="#96D6FA" fill-opacity="0.47"/>
<rect x="486.628" y="437.795" width="132.792" height="16.6484" rx="8.32422" fill="#96D6FA" fill-opacity="0.47"/>
<path d="M624.457 315.38C632.241 314.074 647.626 315.673 646.894 332.518V429.47" stroke="white" stroke-width="3"/>
<rect x="91" y="622.886" width="620" height="28.4003" rx="5" fill="#120A6F"/>
<path d="M300.995 197.972L312.937 192.109C322.491 187.418 385.089 156.015 415.194 140.899C422.957 137.459 430.868 139.466 433.854 140.899L548.053 197.581C559.1 203.523 563.106 214.912 563.728 219.863C569.699 387.173 475.901 456.103 428.256 469.655C426.763 470.28 424.4 469.915 423.404 469.655C300.995 425.247 281.339 284.624 286.813 219.863C288.604 207.98 297.014 200.318 300.995 197.972Z" stroke="url(#paint0_linear)" stroke-width="60"/>
<path d="M300.995 197.972L312.937 192.109C322.491 187.418 385.089 156.015 415.194 140.899C422.957 137.459 430.868 139.466 433.854 140.899L548.053 197.581C559.1 203.523 563.106 214.912 563.728 219.863C569.699 387.173 475.901 456.103 428.256 469.655C426.763 470.28 424.4 469.915 423.404 469.655C300.995 425.247 281.339 284.624 286.813 219.863C288.604 207.98 297.014 200.318 300.995 197.972Z" fill="url(#paint1_linear)"/>
<path d="M435.88 321.174L423.025 347.338C422.073 349.329 420.428 350.216 418.091 350L415.04 349.74C413.482 349.697 412.464 349.113 411.988 347.987C411.512 346.862 411.599 345.758 412.248 344.676L456.526 259.302C458.387 255.753 460.832 253.978 463.862 253.978L469.186 253.849C470.787 253.849 472.042 254.39 472.951 255.472C473.86 256.554 474.25 258.155 474.12 260.276L469.445 347.078C469.359 349.026 468.039 350 465.485 350L460.94 349.87C458.776 349.87 457.759 348.68 457.889 346.299L459.577 321.174H435.88ZM440.619 311.565H460.226L463.278 265.34L440.619 311.565Z" fill="#FFF5F5"/>
<path d="M419.12 280.826L431.975 254.662C432.927 252.671 434.572 251.784 436.909 252L439.96 252.26C441.518 252.303 442.536 252.887 443.012 254.013C443.488 255.138 443.401 256.242 442.752 257.324L398.474 342.698C396.613 346.247 394.168 348.022 391.138 348.022L385.814 348.151C384.213 348.151 382.958 347.61 382.049 346.528C381.14 345.446 380.75 343.845 380.88 341.724L385.555 254.922C385.641 252.974 386.961 252 389.515 252L394.06 252.13C396.224 252.13 397.241 253.32 397.111 255.701L395.423 280.826H419.12ZM414.381 290.435H394.774L391.722 336.66L414.381 290.435Z" fill="#FFF5F5"/>
<path d="M325.02 164C313.186 168.833 287.92 181.1 281.52 191.5C275.52 198.5 264.62 219.6 269.02 248" stroke="white" stroke-width="3"/>
<path d="M332 160.5L373 141" stroke="#FFFDFD" stroke-width="3"/>
<defs>
<linearGradient id="paint0_linear" x1="425" y1="139" x2="425" y2="470" gradientUnits="userSpaceOnUse">
<stop stop-color="#00FFF0"/>
<stop offset="1" stop-color="#12D4FF"/>
</linearGradient>
<linearGradient id="paint1_linear" x1="425" y1="139" x2="425" y2="470" gradientUnits="userSpaceOnUse">
<stop stop-color="#2DB8E3"/>
<stop offset="1" stop-color="#2C00DE"/>
</linearGradient>
</defs>
</svg>
