<svg width="1528" height="512" viewBox="0 0 1528 512" fill="none" xmlns="http://www.w3.org/2000/svg">
<rect x="5" y="5" width="501" height="501" rx="20" fill="#00A3FF"/>
<rect x="23" y="23" width="466" height="466" rx="20" fill="#1A4157"/>
<path d="M271.167 301.946L244.386 356.454C242.402 360.602 238.976 362.451 234.106 362L227.749 361.459C224.503 361.369 222.384 360.151 221.392 357.807C220.4 355.463 220.581 353.163 221.933 350.909L314.179 173.046C318.056 165.652 323.151 161.955 329.463 161.955L340.554 161.684C343.89 161.684 346.505 162.812 348.399 165.066C350.292 167.32 351.104 170.656 350.833 175.075L341.095 355.913C340.914 359.971 338.164 362 332.844 362L323.376 361.729C318.867 361.729 316.748 359.25 317.019 354.29L320.536 301.946H271.167ZM281.041 281.928H321.888L328.245 185.625L281.041 281.928Z" fill="#00D1FF"/>
<path d="M239.833 209.054L266.614 154.546C268.598 150.398 272.024 148.549 276.894 149L283.251 149.541C286.497 149.631 288.616 150.849 289.608 153.193C290.6 155.537 290.419 157.837 289.067 160.091L196.821 337.954C192.944 345.348 187.849 349.045 181.537 349.045L170.446 349.316C167.11 349.316 164.495 348.188 162.601 345.934C160.708 343.68 159.896 340.344 160.167 335.925L169.905 155.087C170.086 151.029 172.836 149 178.156 149L187.624 149.271C192.133 149.271 194.252 151.75 193.981 156.71L190.464 209.054H239.833ZM229.959 229.072H189.112L182.755 325.375L229.959 229.072Z" fill="#00D1FF"/>
<path d="M692.688 332.056C693.264 334.36 693.552 336.184 693.552 337.528C693.552 339.256 693.168 340.6 692.4 341.56C691.632 342.328 690.288 343.096 688.368 343.864C684.912 345.208 682.416 345.88 680.88 345.88C678.768 345.88 677.424 344.536 676.848 341.848L664.464 268.408L610.896 273.88L583.536 336.664C582.192 339.544 580.848 341.56 579.504 342.712C578.16 343.672 576.528 344.152 574.608 344.152C570.96 344.152 568.368 343.864 566.832 343.288C565.104 342.712 564.24 341.656 564.24 340.12C564.24 338.968 564.528 337.72 565.104 336.376L642.576 160.12C643.92 157.048 644.976 155.032 645.744 154.072C646.704 152.92 648.144 151.96 650.064 151.192C654.096 149.848 656.688 149.176 657.84 149.176C659.76 149.176 660.816 150.328 661.008 152.632L678.288 250.84L679.728 250.552C681.264 250.36 683.184 250.264 685.488 250.264C687.6 250.264 689.136 250.744 690.096 251.704C691.056 252.472 691.824 254.296 692.4 257.176C692.784 259.48 692.976 260.92 692.976 261.496C692.976 263.032 692.112 264.184 690.384 264.952C688.848 265.72 685.776 266.392 681.168 266.968L692.688 332.056ZM653.808 205.624L651.216 181.432L618.384 256.6L661.584 252.28L653.808 205.624ZM740.343 149.176C735.543 184.12 730.839 222.424 726.231 264.088C721.623 305.56 719.319 329.848 719.319 336.952C719.319 340.024 719.607 342.136 720.183 343.288C720.951 344.44 722.391 345.016 724.503 345.016C725.079 345.016 726.711 344.824 729.399 344.44C732.279 343.672 734.103 343 734.871 342.424C735.831 341.848 736.407 340.216 736.599 337.528C737.367 321.592 738.231 308.344 739.191 297.784C740.919 279.352 742.935 259.672 745.239 238.744C747.735 217.624 751.863 186.136 757.623 144.28C758.007 142.168 757.911 140.632 757.335 139.672C756.759 138.712 755.703 138.232 754.167 138.232C752.247 138.232 749.847 138.616 746.967 139.384C744.663 139.96 743.031 140.824 742.071 141.976C741.303 143.128 740.727 145.528 740.343 149.176ZM857.798 139.384C860.87 138.616 863.462 138.232 865.574 138.232C867.302 138.232 868.454 138.712 869.03 139.672C869.606 140.44 869.798 141.976 869.606 144.28C863.078 189.592 858.374 223.096 855.494 244.792C852.614 266.296 850.598 283.96 849.446 297.784C847.91 315.256 847.142 328.504 847.142 337.528C847.142 340.216 846.662 341.848 845.702 342.424C844.934 343 843.11 343.672 840.23 344.44C837.926 344.824 836.486 345.016 835.91 345.016C833.606 345.016 832.07 344.248 831.302 342.712C830.534 341.176 830.246 338.392 830.438 334.36C830.438 330.904 830.726 326.488 831.302 321.112C827.654 328.792 822.854 334.84 816.902 339.256C811.142 343.672 804.518 345.88 797.03 345.88C787.814 345.688 780.422 341.176 774.854 332.344C769.478 323.512 766.79 311.32 766.79 295.768C766.982 281.368 769.094 267.928 773.126 255.448C777.158 242.776 783.014 232.696 790.694 225.208C798.566 217.528 807.974 213.688 818.918 213.688C826.79 213.688 834.566 216.088 842.246 220.888C845.702 194.392 848.678 170.488 851.174 149.176C851.558 145.528 852.134 143.128 852.902 141.976C853.862 140.824 855.494 139.96 857.798 139.384ZM840.23 236.728C836.582 234.424 833.222 232.792 830.15 231.832C827.27 230.68 824.006 230.104 820.358 230.104C811.526 230.104 804.422 233.848 799.046 241.336C793.67 248.824 789.83 257.56 787.526 267.544C785.414 277.528 784.262 286.744 784.07 295.192C784.07 317.656 790.118 328.888 802.214 328.888C810.086 328.888 817.19 323.416 823.526 312.472C829.862 301.528 833.894 288.472 835.622 273.304L840.23 236.728ZM928.927 213.112C938.911 213.304 946.783 217.72 952.543 226.36C958.495 234.808 961.567 245.176 961.759 257.464C961.759 273.784 959.743 288.664 955.711 302.104C951.679 315.352 945.631 326.008 937.567 334.072C929.503 341.944 919.615 345.88 907.903 345.88C897.919 345.688 889.951 341.368 883.999 332.92C878.239 324.28 875.263 313.816 875.071 301.528C875.071 285.208 877.087 270.424 881.119 257.176C885.151 243.736 891.199 233.08 899.263 225.208C907.327 217.144 917.215 213.112 928.927 213.112ZM909.343 329.464C917.983 329.464 924.895 325.528 930.079 317.656C935.455 309.784 939.199 300.664 941.311 290.296C943.615 279.736 944.767 270.136 944.767 261.496C944.767 251.896 943.327 244.312 940.447 238.744C937.567 232.984 933.247 230.104 927.487 230.104C918.847 230.104 911.839 234.04 906.463 241.912C901.279 249.592 897.535 258.616 895.231 268.984C893.119 279.352 892.063 288.856 892.063 297.496C892.063 307.096 893.503 314.872 896.383 320.824C899.263 326.584 903.583 329.464 909.343 329.464ZM1150.56 332.056C1151.14 334.36 1151.43 336.184 1151.43 337.528C1151.43 339.256 1151.04 340.6 1150.28 341.56C1149.51 342.328 1148.16 343.096 1146.24 343.864C1142.79 345.208 1140.29 345.88 1138.76 345.88C1136.64 345.88 1135.3 344.536 1134.72 341.848L1122.34 268.408L1068.77 273.88L1041.41 336.664C1040.07 339.544 1038.72 341.56 1037.38 342.712C1036.04 343.672 1034.4 344.152 1032.48 344.152C1028.84 344.152 1026.24 343.864 1024.71 343.288C1022.98 342.712 1022.11 341.656 1022.11 340.12C1022.11 338.968 1022.4 337.72 1022.98 336.376L1100.45 160.12C1101.8 157.048 1102.85 155.032 1103.62 154.072C1104.58 152.92 1106.02 151.96 1107.94 151.192C1111.97 149.848 1114.56 149.176 1115.72 149.176C1117.64 149.176 1118.69 150.328 1118.88 152.632L1136.16 250.84L1137.6 250.552C1139.14 250.36 1141.06 250.264 1143.36 250.264C1145.48 250.264 1147.01 250.744 1147.97 251.704C1148.93 252.472 1149.7 254.296 1150.28 257.176C1150.66 259.48 1150.85 260.92 1150.85 261.496C1150.85 263.032 1149.99 264.184 1148.26 264.952C1146.72 265.72 1143.65 266.392 1139.04 266.968L1150.56 332.056ZM1111.68 205.624L1109.09 181.432L1076.26 256.6L1119.46 252.28L1111.68 205.624ZM1237.39 213.112C1246.79 213.112 1254.19 217.048 1259.56 224.92C1264.94 232.6 1267.63 243.256 1267.63 256.888C1267.63 272.632 1265.61 287.32 1261.58 300.952C1257.55 314.392 1251.5 325.144 1243.43 333.208C1235.56 341.272 1226.15 345.304 1215.21 345.304C1207.15 345.304 1199.47 342.904 1192.17 338.104L1189.58 358.264C1187.66 372.088 1186.31 382.552 1185.55 389.656C1185.16 393.304 1184.49 395.704 1183.53 396.856C1182.76 398.008 1181.23 398.872 1178.92 399.448C1175.85 400.216 1173.26 400.6 1171.15 400.6C1169.42 400.6 1168.27 400.12 1167.69 399.16C1167.11 398.392 1166.92 396.856 1167.11 394.552C1167.11 394.168 1168.84 381.784 1172.3 357.4C1176.71 328.216 1180.27 302.296 1182.95 279.64C1185.83 256.792 1187.27 237.976 1187.27 223.192C1187.27 219.352 1187.66 216.952 1188.43 215.992C1189.39 214.84 1191.31 213.976 1194.19 213.4C1198.79 212.632 1201.29 212.248 1201.67 212.248C1203.4 212.248 1204.55 212.728 1205.13 213.688C1205.71 214.456 1205.9 216.088 1205.71 218.584L1204.55 234.712C1209.35 227.416 1214.25 222.04 1219.24 218.584C1224.23 214.936 1230.28 213.112 1237.39 213.112ZM1213.77 328.888C1222.79 328.888 1229.99 324.856 1235.37 316.792C1240.94 308.728 1244.87 299.224 1247.18 288.28C1249.48 277.336 1250.63 267.256 1250.63 258.04C1250.63 249.784 1249.29 243.064 1246.6 237.88C1243.91 232.696 1239.98 230.104 1234.79 230.104C1229.61 230.104 1224.43 233.08 1219.24 239.032C1214.06 244.792 1209.55 251.992 1205.71 260.632C1202.06 269.272 1199.75 277.624 1198.79 285.688L1194.19 322.264C1197.83 324.568 1201.1 326.296 1203.98 327.448C1207.05 328.408 1210.31 328.888 1213.77 328.888ZM1346.51 213.112C1355.92 213.112 1363.31 217.048 1368.69 224.92C1374.06 232.6 1376.75 243.256 1376.75 256.888C1376.75 272.632 1374.74 287.32 1370.7 300.952C1366.67 314.392 1360.62 325.144 1352.56 333.208C1344.69 341.272 1335.28 345.304 1324.34 345.304C1316.27 345.304 1308.59 342.904 1301.3 338.104L1298.7 358.264C1296.78 372.088 1295.44 382.552 1294.67 389.656C1294.29 393.304 1293.62 395.704 1292.66 396.856C1291.89 398.008 1290.35 398.872 1288.05 399.448C1284.98 400.216 1282.38 400.6 1280.27 400.6C1278.54 400.6 1277.39 400.12 1276.82 399.16C1276.24 398.392 1276.05 396.856 1276.24 394.552C1276.24 394.168 1277.97 381.784 1281.42 357.4C1285.84 328.216 1289.39 302.296 1292.08 279.64C1294.96 256.792 1296.4 237.976 1296.4 223.192C1296.4 219.352 1296.78 216.952 1297.55 215.992C1298.51 214.84 1300.43 213.976 1303.31 213.4C1307.92 212.632 1310.42 212.248 1310.8 212.248C1312.53 212.248 1313.68 212.728 1314.26 213.688C1314.83 214.456 1315.02 216.088 1314.83 218.584L1313.68 234.712C1318.48 227.416 1323.38 222.04 1328.37 218.584C1333.36 214.936 1339.41 213.112 1346.51 213.112ZM1322.9 328.888C1331.92 328.888 1339.12 324.856 1344.5 316.792C1350.06 308.728 1354 299.224 1356.3 288.28C1358.61 277.336 1359.76 267.256 1359.76 258.04C1359.76 249.784 1358.42 243.064 1355.73 237.88C1353.04 232.696 1349.1 230.104 1343.92 230.104C1338.74 230.104 1333.55 233.08 1328.37 239.032C1323.18 244.792 1318.67 251.992 1314.83 260.632C1311.18 269.272 1308.88 277.624 1307.92 285.688L1303.31 322.264C1306.96 324.568 1310.22 326.296 1313.1 327.448C1316.18 328.408 1319.44 328.888 1322.9 328.888ZM1451.6 237.304C1447.19 231.352 1441.33 228.376 1434.04 228.376C1429.24 228.376 1425.2 229.624 1421.94 232.12C1418.87 234.424 1417.33 238.168 1417.33 243.352C1417.33 247.96 1418.77 252.184 1421.65 256.024C1424.72 259.672 1429.91 264.184 1437.2 269.56C1446.8 276.856 1453.81 283.288 1458.23 288.856C1462.64 294.424 1464.85 301.24 1464.85 309.304C1464.85 320.248 1461.11 328.984 1453.62 335.512C1446.13 342.04 1436.92 345.304 1425.97 345.304C1418.1 345.304 1410.8 343.192 1404.08 338.968C1397.36 334.744 1391.8 329.176 1387.38 322.264C1386.8 321.112 1386.52 320.056 1386.52 319.096C1386.52 316.984 1388.34 314.776 1391.99 312.472C1394.29 310.744 1396.12 309.88 1397.46 309.88C1398.8 309.88 1400.15 310.936 1401.49 313.048C1404.56 317.656 1408.21 321.4 1412.44 324.28C1416.85 327.16 1421.56 328.6 1426.55 328.6C1432.88 328.6 1437.97 326.776 1441.81 323.128C1445.84 319.48 1447.86 315.064 1447.86 309.88C1447.86 304.888 1446.13 300.568 1442.68 296.92C1439.41 293.08 1434.52 288.664 1427.99 283.672L1422.23 279.064C1414.93 273.304 1409.46 267.832 1405.81 262.648C1402.16 257.272 1400.34 250.744 1400.34 243.064C1400.34 233.656 1403.6 226.168 1410.13 220.6C1416.66 215.032 1424.82 212.248 1434.61 212.248C1449.78 212.248 1460.63 218.296 1467.16 230.392C1467.73 231.544 1468.02 232.504 1468.02 233.272C1468.02 234.424 1467.54 235.384 1466.58 236.152C1465.62 236.92 1463.89 237.976 1461.4 239.32C1459.09 240.28 1457.46 240.76 1456.5 240.76C1454.77 240.76 1453.14 239.608 1451.6 237.304Z" fill="#1A4157"/>
</svg>
