<svg width="290" height="255" viewBox="0 0 290 255" fill="none" xmlns="http://www.w3.org/2000/svg">
<g filter="url(#filter0_d)">
<path d="M216.049 106.678C216.238 117.959 222.282 128.89 225.28 132.946C218.728 133.729 197.328 151.393 187.447 160.126C183.952 163.644 181.035 161.1 180.013 159.388L174.994 139.396C164.02 140.041 160.002 138.809 159.364 138.112C156.308 136.026 154.326 128.033 154.378 128.219C153.606 125.325 150.471 118.386 149 115.279C145.781 109.496 144.067 101.956 143.612 98.9082C140.708 96.4784 139.34 93.8404 139.019 92.8251C136.066 75.3034 154.092 59.175 163.474 53.3011C195.421 32.618 213.039 59.5569 217.854 75.6117C220.922 81.3948 217.929 98.7324 216.049 106.678Z" fill="#59BAFC"/>
<path d="M167.297 116.173C159.993 120.465 156.254 119.003 155.297 117.736C155.293 116.574 156.668 113.932 157.454 112.584C157.542 112.431 157.303 109.853 157.173 108.583L174.329 110.433C174.267 110.815 174.142 111.615 174.143 111.768C172.93 113.753 169.073 115.532 167.297 116.173Z" fill="#011CAB"/>
<path d="M157.579 116.394C156.513 116.703 156.63 117.541 156.822 117.921C156.824 118.531 157.332 118.682 157.586 118.681C158.197 118.832 162.285 118.221 164.253 117.897C166.692 117.585 168.44 116.232 169.01 115.595C168.098 116.513 161.01 116.51 157.579 116.394Z" fill="#F5F5F5"/>
<path d="M156.615 112.823C154.941 113.895 154.512 110.606 154.506 108.828C154.952 105.473 159.136 106.78 161.172 107.854C168.944 107.066 172.291 108.771 172.993 109.721C172.999 111.627 171.664 111.25 171.664 111.44C164.041 111.16 158.455 112.245 156.615 112.823Z" fill="#F5F5F5"/>
<path d="M154.874 104.779C149.694 105.711 151.46 109.745 152.99 111.645C153.445 110.882 154.825 109.162 155.457 108.398C158.663 109.76 169.12 110.323 173.948 110.434C173.492 110.741 173.253 111.58 173.191 111.961C169.239 115.785 161.267 117.653 157.775 118.109C155.795 118.573 156.179 115.51 156.618 113.92C152.064 119.728 155.755 121.926 158.17 122.3C168.383 122.114 173.833 114.31 175.282 110.43C174.67 109.822 172.608 108.66 171.654 108.155C162.334 101.782 156.584 103.249 154.874 104.779Z" fill="url(#paint0_linear)"/>
<path d="M154.874 104.779C149.694 105.711 151.46 109.745 152.99 111.645C153.445 110.882 154.825 109.162 155.457 108.398C158.663 109.76 169.12 110.323 173.948 110.434C173.492 110.741 173.253 111.58 173.191 111.961C169.239 115.785 161.267 117.653 157.775 118.109C155.795 118.573 156.179 115.51 156.618 113.92C152.064 119.728 155.755 121.926 158.17 122.3C168.383 122.114 173.833 114.31 175.282 110.43C174.67 109.822 172.608 108.66 171.654 108.155C162.334 101.782 156.584 103.249 154.874 104.779Z" fill="url(#paint1_linear)"/>
<path d="M154.874 104.779C149.694 105.711 151.46 109.745 152.99 111.645C153.445 110.882 154.825 109.162 155.457 108.398C158.663 109.76 169.12 110.323 173.948 110.434C173.492 110.741 173.253 111.58 173.191 111.961C169.239 115.785 161.267 117.653 157.775 118.109C155.795 118.573 156.179 115.51 156.618 113.92C152.064 119.728 155.755 121.926 158.17 122.3C168.383 122.114 173.833 114.31 175.282 110.43C174.67 109.822 172.608 108.66 171.654 108.155C162.334 101.782 156.584 103.249 154.874 104.779Z" fill="url(#paint2_linear)"/>
<path d="M217.615 119.631C213.342 118.273 214.155 110.432 215.096 106.681C219.809 101.115 221.514 96.7374 221.572 93.4063C221.655 88.6873 218.436 86.0686 215.789 85.1463C208.932 85.9306 208.151 80.2164 208.15 79.8352C207.975 78.3109 206.787 77.0122 206.894 77.3479C204.746 73.3881 197.201 71.7983 193.64 71.4974C190.207 60.559 169.241 64.2783 170.149 64.7019C161.626 61.7202 158.52 73.3967 158.032 79.6155C146.599 79.6523 142.385 92.7508 141.708 99.2954C141.405 100.059 139.679 100.509 138.854 100.638C139.76 97.8915 137.933 90.8595 136.907 87.6869C136.911 89.0589 135.138 90.805 134.251 91.5066C134.7 88.9135 132.903 87.1281 131.948 86.5595C125.111 93.4416 123.349 78.9649 123.351 79.7271C112.536 82.3535 109.782 67.3846 109.757 59.5718C116 57.4175 115.137 53.5837 113.925 51.9361C111.759 48.2096 118.904 48.2178 123.405 48.7504C121.499 48.0549 121.374 44.2898 121.713 44.2887C114.222 37.7577 118.304 31.2783 121.282 28.855C116.73 35.5773 120.675 37.4956 123.216 37.6144C126.416 37.2992 125.552 33.4146 124.721 31.5117C123.634 25.4174 129.08 24.2565 131.939 24.4379C132.383 20.168 138.474 22.0031 141.464 23.4544C136.882 20.8776 136.615 16.9276 137.055 15.2747C139.622 7.79657 148.135 4.25021 152.07 3.4118C147.126 6.66718 146 12.0064 146.001 12.3875C146.316 15.283 150.574 12.1822 152.664 10.2699C156.319 9.03861 164.869 13.0255 168.687 15.1729C166.233 10.7598 170.443 8.24362 172.854 7.53715C171.639 8.76063 171.852 11.8597 172.111 13.2563C173.801 17.3669 178.537 16.6021 180.694 15.7059C187.694 12.0247 192.132 17.1935 193.475 20.2381C192.848 14.5996 197.777 14.8251 200.321 15.6427C204.423 11.361 208.003 14.4746 209.28 16.5666L208.893 14.6623C212.546 13.1261 216.259 14.0034 217.658 14.6341C220.864 16.1482 221.046 21.3562 220.737 23.7709C227.739 20.6995 231.932 28.6894 233.153 33.0683C233.469 36.726 234.689 36.8745 235.26 36.4915C237.996 34.196 240.09 37.4288 240.795 39.3321C238.505 38.2723 238.456 42.7061 238.717 45.0555C241.01 46.8774 239.94 49.879 239.118 51.152C242.168 51.4471 242.945 56.0942 242.953 58.3808C239.919 63.1164 239.932 67.0927 240.317 68.4889C244.123 66.9521 247.749 68.4649 249.086 69.4134C253.214 73.0588 253.11 76.5146 252.543 77.7868C252.387 76.5677 251.586 76.3925 251.205 76.4572C249.529 76.7675 249.12 80.021 249.125 81.6089C250.662 85.5676 247.745 86.822 246.093 86.9543C248.856 92.7383 244.218 96.3612 241.554 97.4496C244.464 101.709 241.26 104.692 239.294 105.651C245.241 106.394 244.578 109.381 243.502 110.782C240.463 113.65 232.256 109.675 232.447 109.865C234.588 111.84 235.258 114.874 235.326 116.144C236.249 118.733 232.924 120.027 231.147 120.35C227.96 124.934 223.099 126.093 221.066 126.099C219.542 126.256 218.13 121.853 217.615 119.631Z" fill="#6066F2"/>
<path d="M217.615 119.631C213.342 118.273 214.155 110.432 215.096 106.681C219.809 101.115 221.514 96.7374 221.572 93.4063C221.655 88.6873 218.436 86.0686 215.789 85.1463C208.932 85.9306 208.151 80.2164 208.15 79.8352C207.975 78.3109 206.787 77.0122 206.894 77.3479C204.746 73.3881 197.201 71.7983 193.64 71.4974C190.207 60.559 169.241 64.2783 170.149 64.7019C161.626 61.7202 158.52 73.3967 158.032 79.6155C146.599 79.6523 142.385 92.7508 141.708 99.2954C141.405 100.059 139.679 100.509 138.854 100.638C139.76 97.8915 137.933 90.8595 136.907 87.6869C136.911 89.0589 135.138 90.805 134.251 91.5066C134.7 88.9135 132.903 87.1281 131.948 86.5595C125.111 93.4416 123.349 78.9649 123.351 79.7271C112.536 82.3535 109.782 67.3846 109.757 59.5718C116 57.4175 115.137 53.5837 113.925 51.9361C111.759 48.2096 118.904 48.2178 123.405 48.7504C121.499 48.0549 121.374 44.2898 121.713 44.2887C114.222 37.7577 118.304 31.2783 121.282 28.855C116.73 35.5773 120.675 37.4956 123.216 37.6144C126.416 37.2992 125.552 33.4146 124.721 31.5117C123.634 25.4174 129.08 24.2565 131.939 24.4379C132.383 20.168 138.474 22.0031 141.464 23.4544C136.882 20.8776 136.615 16.9276 137.055 15.2747C139.622 7.79657 148.135 4.25021 152.07 3.4118C147.126 6.66718 146 12.0064 146.001 12.3875C146.316 15.283 150.574 12.1822 152.664 10.2699C156.319 9.03861 164.869 13.0255 168.687 15.1729C166.233 10.7598 170.443 8.24362 172.854 7.53715C171.639 8.76063 171.852 11.8597 172.111 13.2563C173.801 17.3669 178.537 16.6021 180.694 15.7059C187.694 12.0247 192.132 17.1935 193.475 20.2381C192.848 14.5996 197.777 14.8251 200.321 15.6427C204.423 11.361 208.003 14.4746 209.28 16.5666L208.893 14.6623C212.546 13.1261 216.259 14.0034 217.658 14.6341C220.864 16.1482 221.046 21.3562 220.737 23.7709C227.739 20.6995 231.932 28.6894 233.153 33.0683C233.469 36.726 234.689 36.8745 235.26 36.4915C237.996 34.196 240.09 37.4288 240.795 39.3321C238.505 38.2723 238.456 42.7061 238.717 45.0555C241.01 46.8774 239.94 49.879 239.118 51.152C242.168 51.4471 242.945 56.0942 242.953 58.3808C239.919 63.1164 239.932 67.0927 240.317 68.4889C244.123 66.9521 247.749 68.4649 249.086 69.4134C253.214 73.0588 253.11 76.5146 252.543 77.7868C252.387 76.5677 251.586 76.3925 251.205 76.4572C249.529 76.7675 249.12 80.021 249.125 81.6089C250.662 85.5676 247.745 86.822 246.093 86.9543C248.856 92.7383 244.218 96.3612 241.554 97.4496C244.464 101.709 241.26 104.692 239.294 105.651C245.241 106.394 244.578 109.381 243.502 110.782C240.463 113.65 232.256 109.675 232.447 109.865C234.588 111.84 235.258 114.874 235.326 116.144C236.249 118.733 232.924 120.027 231.147 120.35C227.96 124.934 223.099 126.093 221.066 126.099C219.542 126.256 218.13 121.853 217.615 119.631Z" fill="url(#paint3_linear)"/>
<path d="M170.149 64.7019C170.159 64.7055 170.17 64.7092 170.18 64.7129C170.168 64.7095 170.157 64.7058 170.149 64.7019Z" fill="#6066F2"/>
<path d="M170.149 64.7019C170.159 64.7055 170.17 64.7092 170.18 64.7129C170.168 64.7095 170.157 64.7058 170.149 64.7019Z" fill="url(#paint4_linear)"/>
<path d="M206.894 77.3479C206.931 77.4153 206.966 77.4834 206.999 77.5523C206.941 77.4569 206.907 77.3897 206.894 77.3479Z" fill="#6066F2"/>
<path d="M206.894 77.3479C206.931 77.4153 206.966 77.4834 206.999 77.5523C206.941 77.4569 206.907 77.3897 206.894 77.3479Z" fill="url(#paint5_linear)"/>
<path d="M222.251 79.7899C216.607 78.8934 213.953 86.9307 213.331 91.0614C214.256 94.4123 211.322 98.3091 209.738 99.8386C208.377 103.197 210.33 105.935 211.476 106.884C214.687 109.922 221.683 100.626 224.779 95.598C230.082 85.367 225.303 80.7963 222.251 79.7899Z" fill="url(#paint6_linear)"/>
<path d="M215.996 90.1001C216.178 87.6858 217.192 82.8932 219.784 83.0373M213.925 98.1101C212.785 99.0031 210.696 101.246 211.464 103.073C212.042 104.976 214.108 107.447 217.749 102.1" stroke="#0038FF"/>
<path d="M222.835 83.5991C224.999 84.9896 227.467 90.1394 220.028 99.615" stroke="#0038FF"/>
<path d="M93.8873 161.38C96.1804 163.355 111.735 161.132 119.226 159.774L125.664 146.986C134.342 143.3 138.128 131.829 138.937 126.554C138.619 122.287 139.663 115.118 140.225 112.068C139.6 107.344 140.836 104.634 141.532 103.869L142.064 91.4814C139.475 92.4044 136.56 98.3592 135.426 101.221C132.548 107.176 131.967 112.094 132.036 113.809C130.672 116.252 129.832 119.787 129.583 121.249C128.04 115.537 128.52 86.9516 128.9 86.5693C129.157 71.9337 125.307 75.6556 123.35 79.346C121.989 82.8566 120.669 95.0438 120.179 100.699C120.19 103.9 119.046 103.815 118.473 103.372C117.693 97.8482 120.715 89.454 120.714 89.0729C121.014 87.5475 122.578 76.109 123.322 70.5805C123.916 65.5478 122.032 64.5503 121.016 64.6806C119.797 64.6845 119.119 67.2275 118.932 68.4985L116.52 88.5147L117.61 72.1233C118.724 62.973 115.678 63.745 115.676 63.3639C113.694 63.2178 113.333 65.3405 113.4 66.4201L111.75 86.6245L112.077 70.045C112.524 66.8422 110.859 66.5554 109.971 66.8123C108.752 66.9687 108.074 69.6768 107.888 71.0113L105.063 81.3104L99.578 94.0954C97.7585 97.1502 97.6884 99.056 97.8808 99.627C98.4969 101.607 97.6989 122.05 97.2228 132.024C96.8558 136.408 93.8078 160.702 93.8849 160.618C93.429 161.077 93.6966 161.318 93.8873 161.38Z" fill="#6AAAFF"/>
<path d="M93.8873 161.38C96.1804 163.355 111.735 161.132 119.226 159.774L125.664 146.986C134.342 143.3 138.128 131.829 138.937 126.554C138.619 122.287 139.663 115.118 140.225 112.068C139.6 107.344 140.836 104.634 141.532 103.869L142.064 91.4814C139.475 92.4044 136.56 98.3592 135.426 101.221C132.548 107.176 131.967 112.094 132.036 113.809C130.672 116.252 129.832 119.787 129.583 121.249C128.04 115.537 128.52 86.9516 128.9 86.5693C129.157 71.9337 125.307 75.6556 123.35 79.346C121.989 82.8566 120.669 95.0438 120.179 100.699C120.19 103.9 119.046 103.815 118.473 103.372C117.693 97.8482 120.715 89.454 120.714 89.0729C121.014 87.5475 122.578 76.109 123.322 70.5805C123.916 65.5478 122.032 64.5503 121.016 64.6806C119.797 64.6845 119.119 67.2275 118.932 68.4985L116.52 88.5147L117.61 72.1233C118.724 62.973 115.678 63.745 115.676 63.3639C113.694 63.2178 113.333 65.3405 113.4 66.4201L111.75 86.6245L112.077 70.045C112.524 66.8422 110.859 66.5554 109.971 66.8123C108.752 66.9687 108.074 69.6768 107.888 71.0113L105.063 81.3104L99.578 94.0954C97.7585 97.1502 97.6884 99.056 97.8808 99.627C98.4969 101.607 97.6989 122.05 97.2228 132.024C96.8558 136.408 93.8078 160.702 93.8849 160.618C93.429 161.077 93.6966 161.318 93.8873 161.38Z" fill="url(#paint7_linear)"/>
<path d="M107.294 123.226C110.665 128.703 109.643 142.655 108.711 148.946C112.676 149.544 114.418 146.133 114.794 144.354C114.594 129.567 124.442 122.408 129.39 120.677L128.582 106.388C123.704 106.252 116.645 107.634 113.725 108.342C104.279 110.201 105.502 119.039 107.294 123.226Z" fill="url(#paint8_linear)"/>
<path d="M104.551 99.9867C105.624 101.813 105.397 106.209 105.149 108.179C106.054 105.127 105.382 101.445 104.933 99.9855L106.621 91.7861L108.704 87.7777L109.459 85.298L108.703 87.206L106.24 91.7873L104.551 99.9867Z" fill="#3C48FA"/>
<path d="M112.131 86.6233L111.422 103.395L111.975 97.4856L112.691 83.1915L112.131 86.6233Z" fill="#3C48FA"/>
<path d="M169.516 95.2042C166.919 93.5357 165.127 93.3763 164.556 93.5051L162.84 93.3201L188.172 89.4274C197.013 89.0941 200.479 84.4333 201.106 82.1446C201.084 75.2211 201.116 61.3739 201.421 61.3729C202.167 56.4922 199.172 53.3767 197.581 52.429L202.924 54.6985C205.366 55.7578 206.364 57.7999 206.557 58.6885L207.566 76.026C208.029 78.0063 206.76 82.317 206.068 84.2248C203.496 90.4833 197.52 92.8274 194.854 93.2171L180.57 95.7403C174.934 96.978 170.852 95.8986 169.516 95.2042Z" fill="#2C11D3"/>
<path d="M143.983 95.858C144.285 94.79 147.663 94.3853 149.314 94.3164C148.098 95.235 148.69 97.6214 149.138 98.6998C147.777 102.21 145.405 103.349 144.389 103.479C141.492 103.183 141.14 100.441 141.326 99.1061L146.275 97.2734C143.99 97.9347 143.984 96.0312 143.983 95.858Z" fill="#2C11D3"/>
<path d="M130.852 101.236C119.877 101.424 118.4 100.323 119.033 99.7495C112.323 98.8564 109.872 95.2056 109.485 93.4919C109.026 92.8836 108.644 88.6671 108.51 86.6349L107.885 70.0585C108.016 63.5029 112.239 60.9612 114.333 60.5099L163.073 47.014C170.991 44.3969 178.313 45.631 180.983 46.5752L197.581 52.429C201.399 54.551 202.359 56.987 202.362 57.9398L203.37 74.8961C204.464 83.4296 198.647 87.7422 195.602 88.8318C190.423 90.2205 171.985 92.6555 163.413 93.6994C156.247 93.1127 149.251 94.5072 146.649 95.2778C142.386 96.9684 145.257 96.8703 147.225 96.6098L147.229 97.7532C143.878 98.5262 138.091 100.514 135.617 101.411L130.852 101.236Z" fill="url(#paint9_linear)"/>
<path d="M120.179 100.699C119.265 100.702 119.034 100.194 119.034 99.9401C121.925 98.2539 150.195 91.6458 163.968 88.5526C171.584 86.3938 174.231 80.008 174.603 77.0849C174.905 76.1692 175.092 71.2396 175.148 68.8892C175.293 66.602 174.026 55.8714 173.375 50.792C173.219 49.8778 172.67 49.0157 172.415 48.6989C170.425 45.9613 165.865 46.3063 163.834 46.821C170.23 44.6661 177.932 45.6323 180.983 46.3847C183.427 47.9012 185.318 51.1982 185.958 52.657C188.573 59.966 187.988 71.7062 187.369 76.6627C185.72 85.3574 176.038 88.7043 171.403 89.2909C160.431 90.8506 150.581 93.169 147.027 94.1332C138.952 95.5313 125.764 99.0927 120.179 100.699Z" fill="#0864EF"/>
<path d="M204.633 112.051C197.976 127.774 183.497 136.701 177.089 139.199C180.636 151.688 188.373 151.739 191.798 150.203C200.916 141.332 204.154 121.072 204.633 112.051Z" fill="url(#paint10_linear)"/>
<path d="M153.522 99.0668L151.036 96.5976C149.427 97.1885 150.387 98.1698 151.142 98.6382C151.83 98.1344 153.015 98.714 153.522 99.0668Z" fill="#5445D6"/>
<path d="M161.332 98.2795C157.817 95.5467 156.307 96.0089 155.991 96.5816C155.413 97.454 155.825 98.2771 156.141 98.6275C157.623 97.2108 160.219 97.8052 161.332 98.2795Z" fill="#5445D6"/>
<path d="M86.5458 189.416C86.5331 185.452 91.0529 168.821 93.3144 161.001C93.9227 160.542 94.076 160.808 94.0766 160.999C95.605 162.213 103.352 161.477 107.034 160.957C109.169 160.95 116.178 159.911 119.416 159.393C119.113 160.003 119.934 162.694 120.383 163.963C121.915 166.397 121.035 169.296 120.404 170.442C118.579 171.82 121.255 198.07 122.821 211.023L127.952 206.623C132.052 201.732 140.386 182.065 144.041 172.843C151.624 160.623 165.716 157.91 171.815 158.081C175.461 154.41 177.646 154.378 178.283 154.82C179.982 161.827 183.451 161.918 184.973 161.087C202.446 143.195 219.378 134.616 225.66 132.563L262.075 138.353C276.719 141.05 280.309 159.383 280.274 168.212L276.761 201.571C276.199 216.36 272.411 231.502 270.587 237.225L78.5139 239.749L83.7574 211.148C83.1557 201.813 86.5605 188.96 86.5458 189.416Z" fill="url(#paint11_linear)"/>
<g filter="url(#filter1_d)">
<path d="M226.766 180.008C229.305 163.689 239.186 151.067 243.809 146.797C252.625 138.689 257.246 137.67 258.454 138.174C266.079 138.912 271.045 142.644 272.575 144.417C282.667 153.836 281.058 174.879 278.992 184.223C278.556 190.78 273.844 222.669 271.542 237.794L145.966 238.198L94.4291 211.305C91.5199 207.35 91.911 198.609 92.4702 194.732C91.1463 209.676 99.9559 211.477 104.526 210.51C121.89 205.881 124.63 181.099 123.83 169.287C122.132 162.738 124.506 162.235 125.905 162.802L144.42 172.27L210.853 209.405C209.01 204.99 213.746 200.44 216.345 198.717L226.766 180.008Z" fill="url(#paint12_linear)"/>
</g>
<path d="M92.8832 204.64C91.1896 199.462 92.6497 191.302 93.5915 187.869C98.1633 187.397 109.507 199.06 114.608 204.951C101.837 215.816 94.8037 209.271 92.8832 204.64Z" fill="#0821DE"/>
<path d="M123.434 164.525C126.25 186.925 118.724 200.936 114.608 205.142C111.701 201.645 95.4376 189.133 87.6695 183.315L83.0864 180.28C80.0297 177.851 71.8843 173.202 68.1936 171.182C65.1408 169.972 61.0694 168.029 59.4152 167.208C49.4887 161.752 42.0248 151.765 39.5337 147.454C38.1538 145.019 31.9468 138.713 29.0157 135.864C27.7898 133.886 22.5166 129.597 20.0333 127.699C16.0599 124.663 12.0017 118.959 10.4693 116.487C7.70913 111.465 10.6995 109.054 12.5397 108.477C21.9794 104.788 33.404 117.81 37.9363 124.783L48.0516 129.705C52.4514 123.136 50.3513 114.008 48.7513 110.266C47.9846 108.896 47.9147 106.902 47.9756 106.076C48.4113 99.3671 50.7881 91.8387 51.922 88.9132C40.7823 85.4428 28.452 79.1433 23.6794 76.4274C18.4796 71.2609 20.9809 66.9082 22.8816 65.3776L51.3099 76.3384C49.9295 73.7513 48.6539 60.2766 48.1886 53.8627C48.1598 44.9066 47.5415 30.4263 48.1132 30.4244C50.0704 22.7959 54.1216 22.4017 55.9026 23.1582L59.9644 41.8197L87.5951 100.994C94.3566 117.741 96.4498 128.66 96.6512 132.026C98.8394 148.788 102.822 154.746 104.54 155.629L123.434 164.525Z" fill="#6AAAFF"/>
<path d="M123.434 164.525C126.25 186.925 118.724 200.936 114.608 205.142C111.701 201.645 95.4376 189.133 87.6695 183.315L83.0864 180.28C80.0297 177.851 71.8843 173.202 68.1936 171.182C65.1408 169.972 61.0694 168.029 59.4152 167.208C49.4887 161.752 42.0248 151.765 39.5337 147.454C38.1538 145.019 31.9468 138.713 29.0157 135.864C27.7898 133.886 22.5166 129.597 20.0333 127.699C16.0599 124.663 12.0017 118.959 10.4693 116.487C7.70913 111.465 10.6995 109.054 12.5397 108.477C21.9794 104.788 33.404 117.81 37.9363 124.783L48.0516 129.705C52.4514 123.136 50.3513 114.008 48.7513 110.266C47.9846 108.896 47.9147 106.902 47.9756 106.076C48.4113 99.3671 50.7881 91.8387 51.922 88.9132C40.7823 85.4428 28.452 79.1433 23.6794 76.4274C18.4796 71.2609 20.9809 66.9082 22.8816 65.3776L51.3099 76.3384C49.9295 73.7513 48.6539 60.2766 48.1886 53.8627C48.1598 44.9066 47.5415 30.4263 48.1132 30.4244C50.0704 22.7959 54.1216 22.4017 55.9026 23.1582L59.9644 41.8197L87.5951 100.994C94.3566 117.741 96.4498 128.66 96.6512 132.026C98.8394 148.788 102.822 154.746 104.54 155.629L123.434 164.525Z" fill="url(#paint13_linear)"/>
<path d="M67.9215 145.838C66.9049 161.543 74.668 169.763 78.6766 171.91C66.7776 169.357 62.4978 157.924 61.8452 152.527C62.4028 148.143 58.2259 130.693 58.3459 131.006C55.7328 124.306 56.0794 117.547 56.5794 115.005C56.7421 118.205 60.6095 123.821 62.5228 126.228C66.506 132.313 67.7816 141.837 67.9215 145.838Z" fill="url(#paint14_linear)"/>
<path d="M46.3532 134.855C47.408 131.041 41.442 128.583 38.3272 127.831C38.0321 130.881 35.9286 132.539 34.9137 132.987C42.4076 140.432 45.6625 137.335 46.3532 134.855Z" fill="url(#paint15_linear)"/>
<path d="M74.8457 106.561L73.116 101.993L67.1062 82.0043L51.1193 76.339C54.1707 77.0914 62.9723 80.1755 66.9918 81.6235L63.0998 68.6782C62.4574 66.4571 61.934 61.7075 64.9789 60.4782C65.7403 60.2216 67.5303 59.8221 68.5989 60.276C67.3912 60.0258 64.6727 60.0599 63.46 62.1981C62.9545 63.0254 62.2897 65.67 63.6745 69.6291L72.3403 97.8037L74.8457 106.561Z" fill="#405CFA"/>
<path d="M61.0858 94.2193C62.0123 97.875 66.0656 102.08 67.9765 103.725C66.7012 102.205 64.1506 99.1258 64.1501 98.9734C62.3144 96.9975 61.596 94.8529 61.4663 94.0275L51.5403 88.7239L61.0858 94.2193Z" fill="#405CFA"/>
<path d="M57.5798 70.6015L57.0044 69.46C55.3702 66.8909 51.3732 53.6012 48.9704 45.1522C48.429 43.4859 48.1173 42.4111 48.1512 42.2389C48.3941 43.1139 48.6698 44.0951 48.9704 45.1522C50.8263 50.8645 55.381 63.5274 57.9609 70.6003L57.986 78.4131L57.6049 78.4143L57.5798 70.6015Z" fill="#405CFA"/>
</g>
<defs>
<filter id="filter0_d" x="0.0616913" y="0.0882111" width="289.693" height="254.661" filterUnits="userSpaceOnUse" color-interpolation-filters="sRGB">
<feFlood flood-opacity="0" result="BackgroundImageFix"/>
<feColorMatrix in="SourceAlpha" type="matrix" values="0 0 0 0 0 0 0 0 0 0 0 0 0 0 0 0 0 0 127 0"/>
<feOffset dy="6"/>
<feGaussianBlur stdDeviation="4.5"/>
<feColorMatrix type="matrix" values="0 0 0 0 0 0 0 0 0 0 0 0 0 0 0 0 0 0 0.25 0"/>
<feBlend mode="normal" in2="BackgroundImageFix" result="effect1_dropShadow"/>
<feBlend mode="normal" in="SourceGraphic" in2="effect1_dropShadow" result="shape"/>
</filter>
<filter id="filter1_d" x="84.8774" y="134.994" width="202.877" height="114.377" filterUnits="userSpaceOnUse" color-interpolation-filters="sRGB">
<feFlood flood-opacity="0" result="BackgroundImageFix"/>
<feColorMatrix in="SourceAlpha" type="matrix" values="0 0 0 0 0 0 0 0 0 0 0 0 0 0 0 0 0 0 127 0"/>
<feOffset dy="4"/>
<feGaussianBlur stdDeviation="3.5"/>
<feColorMatrix type="matrix" values="0 0 0 0 0 0 0 0 0 0 0 0 0 0 0 0 0 0 0.15 0"/>
<feBlend mode="normal" in2="BackgroundImageFix" result="effect1_dropShadow"/>
<feBlend mode="normal" in="SourceGraphic" in2="effect1_dropShadow" result="shape"/>
</filter>
<linearGradient id="paint0_linear" x1="174.901" y1="110.431" x2="163.391" y2="122.283" gradientUnits="userSpaceOnUse">
<stop stop-color="#FF00A8"/>
<stop offset="1" stop-color="#F56EC8"/>
</linearGradient>
<linearGradient id="paint1_linear" x1="158.87" y1="103.051" x2="157.739" y2="106.866" gradientUnits="userSpaceOnUse">
<stop stop-color="#E6B2F8"/>
<stop offset="1" stop-color="#DD88FB" stop-opacity="0"/>
</linearGradient>
<linearGradient id="paint2_linear" x1="157.794" y1="123.825" x2="158.542" y2="119.44" gradientUnits="userSpaceOnUse">
<stop stop-color="#E6B3F8"/>
<stop offset="1" stop-color="#BC00FF" stop-opacity="0"/>
</linearGradient>
<linearGradient id="paint3_linear" x1="220.293" y1="4.52609" x2="214.932" y2="55.8032" gradientUnits="userSpaceOnUse">
<stop stop-color="#A5A9FA"/>
<stop offset="1" stop-color="white" stop-opacity="0"/>
</linearGradient>
<linearGradient id="paint4_linear" x1="220.293" y1="4.52609" x2="214.932" y2="55.8032" gradientUnits="userSpaceOnUse">
<stop stop-color="#A5A9FA"/>
<stop offset="1" stop-color="white" stop-opacity="0"/>
</linearGradient>
<linearGradient id="paint5_linear" x1="220.293" y1="4.52609" x2="214.932" y2="55.8032" gradientUnits="userSpaceOnUse">
<stop stop-color="#A5A9FA"/>
<stop offset="1" stop-color="white" stop-opacity="0"/>
</linearGradient>
<linearGradient id="paint6_linear" x1="212.234" y1="105.357" x2="223.014" y2="80.1685" gradientUnits="userSpaceOnUse">
<stop stop-color="#0F83FF"/>
<stop offset="1" stop-color="#58A6F6"/>
</linearGradient>
<linearGradient id="paint7_linear" x1="117.646" y1="63.3498" x2="117.964" y2="162.101" gradientUnits="userSpaceOnUse">
<stop stop-color="#00F0FF"/>
<stop offset="1" stop-color="#0361B8" stop-opacity="0"/>
</linearGradient>
<linearGradient id="paint8_linear" x1="113.464" y1="145.501" x2="128.769" y2="105.054" gradientUnits="userSpaceOnUse">
<stop offset="0.232585" stop-color="#3D49FA"/>
<stop offset="1" stop-color="#6A74FF" stop-opacity="0"/>
</linearGradient>
<linearGradient id="paint9_linear" x1="112.356" y1="97.2938" x2="203.5" y2="56.0306" gradientUnits="userSpaceOnUse">
<stop stop-color="#01EEFF"/>
<stop offset="1" stop-color="white"/>
</linearGradient>
<linearGradient id="paint10_linear" x1="203.684" y1="113.197" x2="185.13" y2="150.797" gradientUnits="userSpaceOnUse">
<stop stop-color="#3C48FA"/>
<stop offset="1" stop-color="#0010FC" stop-opacity="0"/>
</linearGradient>
<linearGradient id="paint11_linear" x1="167.628" y1="278.145" x2="222.853" y2="148.389" gradientUnits="userSpaceOnUse">
<stop stop-color="#0496FF"/>
<stop offset="1" stop-color="#00F0FF"/>
</linearGradient>
<linearGradient id="paint12_linear" x1="139.78" y1="269.85" x2="256.332" y2="129.987" gradientUnits="userSpaceOnUse">
<stop offset="0.0154491" stop-color="#04A3FF"/>
<stop offset="0.723958" stop-color="#01F1FF"/>
</linearGradient>
<linearGradient id="paint13_linear" x1="52.3972" y1="-0.269055" x2="92.3721" y2="164.244" gradientUnits="userSpaceOnUse">
<stop stop-color="#00F0FF"/>
<stop offset="1" stop-color="#0361B8" stop-opacity="0"/>
</linearGradient>
<linearGradient id="paint14_linear" x1="65.0908" y1="154.423" x2="46.3004" y2="118.468" gradientUnits="userSpaceOnUse">
<stop stop-color="#3C48FA"/>
<stop offset="1" stop-color="#C4C4C4" stop-opacity="0"/>
</linearGradient>
<linearGradient id="paint15_linear" x1="65.0908" y1="154.423" x2="46.3004" y2="118.468" gradientUnits="userSpaceOnUse">
<stop stop-color="#3C48FA"/>
<stop offset="1" stop-color="#C4C4C4" stop-opacity="0"/>
</linearGradient>
</defs>
</svg>
