<svg width="192" height="192" viewBox="0 0 192 192" fill="none" xmlns="http://www.w3.org/2000/svg">
<g clip-path="url(#clip0)">
<rect x="6" y="6" width="179" height="179" rx="20" fill="#00A3FF"/>
<rect x="13" y="13" width="165" height="165" rx="20" fill="#1A4157"/>
<path d="M55.8801 115.174L43.0252 141.338C42.073 143.329 40.4283 144.216 38.0911 144L35.0397 143.74C33.4815 143.697 32.4644 143.113 31.9883 141.987C31.5122 140.862 31.5987 139.758 32.248 138.676L76.5257 53.3021C78.3868 49.7529 80.8323 47.9784 83.862 47.9784L89.1858 47.8485C90.7872 47.8485 92.0424 48.3895 92.9513 49.4716C93.8602 50.5537 94.2498 52.1551 94.1199 54.2759L89.4454 141.078C89.3589 143.026 88.0388 144 85.4851 144L80.9405 143.87C78.7764 143.87 77.7592 142.68 77.8891 140.299L79.5771 115.174H55.8801ZM60.6195 105.565H80.2263L83.2777 59.3399L60.6195 105.565Z" fill="#00D1FF"/>
<path d="M135.12 75.826L147.975 49.6619C148.927 47.6709 150.572 46.7836 152.909 47L155.96 47.2597C157.518 47.303 158.536 47.8873 159.012 49.0126C159.488 50.138 159.401 51.2417 158.752 52.3237L114.474 137.698C112.613 141.247 110.168 143.022 107.138 143.022L101.814 143.151C100.213 143.151 98.9576 142.61 98.0487 141.528C97.1398 140.446 96.7502 138.845 96.8801 136.724L101.555 49.9216C101.641 47.9739 102.961 47 105.515 47L110.06 47.1298C112.224 47.1298 113.241 48.3201 113.111 50.7006L111.423 75.826H135.12ZM130.381 85.4346H110.774L107.722 131.66L130.381 85.4346Z" fill="#00D1FF"/>
</g>
<defs>
<clipPath id="clip0">
<rect width="192" height="192" fill="white"/>
</clipPath>
</defs>
</svg>
