<svg width="512" height="512" viewBox="0 0 512 512" fill="none" xmlns="http://www.w3.org/2000/svg">
<rect x="5" y="5" width="501" height="501" rx="20" fill="#00A3FF"/>
<rect x="23" y="23" width="466" height="466" rx="20" fill="#1A4157"/>
<path d="M271.167 301.946L244.386 356.454C242.402 360.602 238.976 362.451 234.106 362L227.749 361.459C224.503 361.369 222.384 360.151 221.392 357.807C220.4 355.463 220.581 353.163 221.933 350.909L314.179 173.046C318.056 165.652 323.151 161.955 329.463 161.955L340.554 161.684C343.89 161.684 346.505 162.812 348.399 165.066C350.292 167.32 351.104 170.656 350.833 175.075L341.095 355.913C340.914 359.971 338.164 362 332.844 362L323.376 361.729C318.867 361.729 316.748 359.25 317.019 354.29L320.536 301.946H271.167ZM281.041 281.928H321.888L328.245 185.625L281.041 281.928Z" fill="#00D1FF"/>
<path d="M239.833 209.054L266.614 154.546C268.598 150.398 272.024 148.549 276.894 149L283.251 149.541C286.497 149.631 288.616 150.849 289.608 153.193C290.6 155.537 290.419 157.837 289.067 160.091L196.821 337.954C192.944 345.348 187.849 349.045 181.537 349.045L170.446 349.316C167.11 349.316 164.495 348.188 162.601 345.934C160.708 343.68 159.896 340.344 160.167 335.925L169.905 155.087C170.086 151.029 172.836 149 178.156 149L187.624 149.271C192.133 149.271 194.252 151.75 193.981 156.71L190.464 209.054H239.833ZM229.959 229.072H189.112L182.755 325.375L229.959 229.072Z" fill="#00D1FF"/>
</svg>
